<svg width="311" height="311" viewBox="0 0 311 311" fill="none" xmlns="http://www.w3.org/2000/svg">
<g opacity="0.2">
<path d="M292.273 283.85C292.172 298.944 279.99 311.101 265.09 310.999C250.088 310.898 238.007 298.641 238.108 283.648C238.208 268.554 250.39 256.397 265.291 256.499C280.192 256.499 292.273 268.756 292.273 283.85Z" fill="#FF5656"/>
<path d="M237.101 263.59C232.771 270.681 231.563 276.456 230.858 284.56C230.254 291.448 219.482 293.88 213.844 296.108C200.051 301.579 182.432 307.454 167.43 305.327C155.047 303.503 144.476 295.399 138.133 285.776C135.716 282.129 133.703 279.495 132.193 275.037C129.474 266.933 126.957 258.728 126.253 250.117C126.051 246.977 126.253 243.836 126.253 240.595C126.253 237.049 125.447 234.719 129.776 234.415C133.401 234.213 138.636 236.036 142.261 236.542C146.791 237.252 151.221 238.67 155.752 239.784C162.799 241.506 168.84 243.532 174.579 248.091C176.492 249.611 178.707 251.637 180.015 254.473C181.526 257.512 181.626 261.26 185.351 258.525C190.687 254.473 195.319 247.99 199.447 242.722C204.783 236.036 209.212 228.844 214.246 221.955C216.26 219.118 218.374 216.89 219.884 213.749C220.992 211.419 221.898 208.988 223.308 206.962C225.019 204.328 226.026 202.404 227.234 199.466C227.536 198.655 228.241 197.338 228.644 196.325C229.147 195.312 229.952 193.286 230.858 192.273C232.671 190.146 235.691 190.349 238.208 190.146C242.839 189.741 247.471 189.336 252.102 188.626C261.364 187.208 270.526 184.878 279.084 181.13C293.884 174.545 301.334 163.909 306.972 149.22C309.59 157.628 307.576 168.366 306.368 176.774C304.455 190.146 301.233 203.518 296.099 215.978C295.595 217.092 295.092 218.105 294.689 219.422C294.085 220.942 292.978 222.461 292.474 223.576C291.367 226.007 290.561 228.134 289.051 230.667C285.527 236.644 281.702 243.938 276.366 248.496C271.835 252.346 263.378 248.901 257.639 250.117C255.928 250.421 245.457 255.486 243.846 256.904C242.336 258.12 238.712 260.956 237.101 263.59Z" fill="#FF5656"/>
<path d="M311 45.3845C310.899 60.4786 298.717 72.6349 283.816 72.5336C268.815 72.4323 256.733 60.1747 256.834 45.1819C256.935 30.0879 269.117 17.9316 284.018 18.0329C299.019 18.1342 311.1 30.3918 311 45.3845Z" fill="#FF5656"/>
<path d="M155.651 5.37005C153.638 4.76224 151.221 3.2427 149.51 2.43228C171.458 0.40623 195.52 5.57266 215.858 13.8795C225.724 17.9316 235.087 23.098 243.846 29.2775C246.665 31.2022 249.786 32.9243 250.491 36.4699C251.397 40.7246 249.585 45.5872 249.988 50.0445C250.894 58.5539 255.324 66.4555 261.868 71.9258C265.09 74.5597 268.815 76.5857 272.741 77.9027C277.071 79.3209 282.004 78.4092 286.132 79.7261C290.159 81.043 291.669 86.0069 293.179 89.5525C295.596 95.0228 297.71 100.696 299.522 106.47C302.744 116.803 306.066 128.655 305.764 139.495C305.362 153.677 295.294 165.935 285.125 172.924C278.581 177.483 268.714 180.927 260.358 182.65C255.223 183.663 249.988 184.169 244.753 183.966C242.638 183.865 239.014 184.169 237.202 183.865C235.792 183.561 235.289 184.27 234.886 182.548C234.584 181.333 235.591 179.509 235.993 178.294C240.323 164.01 245.659 149.524 245.558 134.429C245.558 129.466 246.464 125.008 245.961 120.146C245.457 115.486 245.86 110.927 245.055 106.47C243.645 97.758 240.323 89.3499 235.893 81.7522C231.463 74.2558 225.925 68.2789 218.878 63.2138C214.347 59.9721 209.817 57.3383 204.38 55.3122C199.95 53.6914 191.594 53.4888 188.775 49.4367C187.365 47.3093 187.265 43.6624 186.56 41.2312C185.754 38.3947 184.748 35.7608 183.539 33.127C181.123 27.6566 178.405 23.7058 174.881 19.0459C173.673 17.4251 172.364 16.5133 170.753 15.0951C169.243 13.6769 167.632 12.2586 166.021 11.2456C162.195 8.61174 159.276 6.88959 155.651 5.37005Z" fill="#FF5656"/>
<path d="M54.1662 267.136C54.0655 282.23 41.8833 294.386 26.9827 294.285C11.9815 294.183 -0.100055 281.926 0.000624701 266.933C0.101304 251.839 12.2835 239.683 27.1841 239.784C42.0846 239.784 54.1662 252.041 54.1662 267.136Z" fill="#FF5656"/>
<path d="M114.675 230.97C115.883 231.274 117.292 231.376 118.299 232.287C120.011 233.807 119.709 235.428 119.608 237.555C119.507 240.797 119.809 243.836 120.111 247.179C120.615 251.94 121.42 256.701 122.024 261.463C122.528 265.616 124.34 268.452 125.347 272.403C127.461 280.406 131.689 289.321 137.227 295.601C141.858 300.869 149.308 306.238 155.953 307.96C158.067 308.568 160.182 309.986 157.262 310.29C155.047 310.594 152.329 310.189 150.617 310.088C144.677 309.784 138.838 309.379 132.898 308.568C122.326 307.15 111.856 304.617 101.687 301.072C96.8543 299.35 92.0217 297.526 87.3905 295.196C82.4572 292.765 77.0205 290.334 72.4899 287.396C68.9661 285.066 65.543 282.23 62.1199 279.697C57.69 276.455 60.4084 272.505 60.8111 267.845C61.7172 259.436 57.8914 249.813 52.1527 243.735C46.4139 237.656 37.4535 232.287 28.9964 232.794C25.3719 232.997 22.3516 233.3 20.338 229.755C17.821 225.399 16.1094 219.827 14.2972 215.167C10.3707 205.24 7.85372 194.704 6.04149 184.27C4.32994 174.241 5.03469 164.111 10.4714 155.399C15.2033 147.801 22.0495 141.419 29.8018 137.063C37.2521 132.91 45.5078 130.478 53.9649 129.06C54.9717 128.858 58.5961 127.642 59.2002 129.161C59.8043 130.681 57.4887 131.795 56.5826 132.606C52.9581 135.746 49.9377 139.596 47.5214 143.648C35.8426 163.604 39.5677 187.005 52.6561 204.936C55.5758 208.887 59.5023 211.723 63.2274 214.661C64.7376 215.775 66.2478 216.991 67.9593 218.105C69.8722 219.321 71.3824 220.84 73.6981 221.651C79.7388 223.879 86.1823 225.5 92.5251 226.817C95.4448 227.425 98.3645 227.931 101.284 228.438" fill="#FF5656"/>
<path d="M37.3526 60.0733C45.6083 61.6942 52.6558 62.6059 60.7102 58.959C67.6571 55.9199 73.3958 50.4496 77.0203 43.7636C78.6311 40.7246 79.8393 37.2803 80.4434 33.836C81.0474 30.2904 80.0406 25.6305 82.4569 22.794C85.1753 19.7549 91.0147 18.1341 94.6392 16.6146C99.4718 14.5885 104.405 12.7651 109.439 11.2455C118.802 8.40906 128.769 6.1804 138.636 5.9778C148.402 5.77519 156.96 9.9286 164.209 16.3107C170.048 21.4771 174.579 27.9604 177.7 35.0516C179.311 38.6985 180.619 42.548 181.727 46.3975C182.834 50.6522 183.841 53.1848 179.21 54.2991C161.591 58.6551 147.899 66.658 140.952 84.1833C137.025 94.0097 134.307 104.444 133.904 115.081C133.703 120.044 133.602 121.767 128.367 120.855C123.031 119.943 117.695 118.728 112.258 117.917C101.687 116.296 91.9208 117.208 81.3495 119.031C77.2216 119.741 69.268 120.652 66.6503 120.956C64.234 121.26 56.4817 122.78 51.347 123.691C37.5539 126.123 23.4588 131.998 13.6929 142.838C10.3705 146.586 7.8535 151.144 6.14195 155.804C5.83991 156.716 5.63855 158.843 4.53108 159.147C2.51749 159.654 3.4236 155.703 3.52428 154.69C4.12836 143.243 5.23583 131.796 7.65214 120.652C12.3841 99.8852 21.3445 75.0661 37.3526 60.0733Z" fill="#FF5656"/>
<path d="M73.7985 27.3523C73.6978 42.4464 61.5156 54.6027 46.615 54.5014C31.6138 54.4001 19.5323 42.1425 19.6329 27.1497C19.6329 12.0556 31.9158 -0.100674 46.8164 0.000628567C61.8176 0.101931 73.8992 12.3595 73.7985 27.3523Z" fill="#FF5656"/>
</g>
</svg>
