<svg width="311" height="311" viewBox="0 0 311 311" fill="none" xmlns="http://www.w3.org/2000/svg">
<g opacity="0.2">
<path d="M292.273 283.85C292.172 298.944 279.99 311.101 265.09 310.999C250.088 310.898 238.007 298.64 238.107 283.648C238.208 268.554 250.39 256.397 265.291 256.499C280.191 256.499 292.273 268.756 292.273 283.85Z" fill="#8C668D"/>
<path d="M237.101 263.59C232.771 270.681 231.563 276.455 230.859 284.559C230.254 291.448 219.482 293.879 213.844 296.108C200.051 301.578 182.432 307.454 167.431 305.326C155.047 303.503 144.476 295.399 138.133 285.775C135.717 282.128 133.703 279.494 132.193 275.037C129.474 266.933 126.957 258.727 126.253 250.117C126.051 246.976 126.253 243.836 126.253 240.594C126.253 237.049 125.447 234.719 129.776 234.415C133.401 234.212 138.636 236.035 142.261 236.542C146.791 237.251 151.221 238.669 155.752 239.784C162.799 241.506 168.84 243.532 174.579 248.09C176.492 249.61 178.707 251.636 180.015 254.473C181.526 257.512 181.626 261.26 185.351 258.525C190.687 254.473 195.319 247.989 199.447 242.721C204.783 236.035 209.212 228.843 214.246 221.954C216.26 219.118 218.374 216.889 219.884 213.749C220.992 211.419 221.898 208.988 223.308 206.962C225.019 204.328 226.026 202.403 227.234 199.465C227.536 198.655 228.241 197.338 228.644 196.325C229.147 195.312 229.952 193.286 230.859 192.273C232.671 190.145 235.691 190.348 238.208 190.145C242.839 189.74 247.471 189.335 252.102 188.626C261.364 187.208 270.526 184.878 279.084 181.13C293.884 174.545 301.334 163.908 306.972 149.219C309.59 157.627 307.576 168.365 306.368 176.774C304.455 190.145 301.233 203.517 296.099 215.978C295.595 217.092 295.092 218.105 294.689 219.422C294.085 220.941 292.978 222.461 292.474 223.575C291.367 226.007 290.561 228.134 289.051 230.666C285.527 236.643 281.702 243.937 276.366 248.496C271.835 252.345 263.378 248.901 257.639 250.117C255.928 250.42 245.457 255.486 243.846 256.904C242.336 258.119 238.712 260.956 237.101 263.59Z" fill="#8C668D"/>
<path d="M310.999 45.3842C310.899 60.4782 298.716 72.6346 283.816 72.5332C268.815 72.4319 256.733 60.1743 256.834 45.1816C256.935 30.0875 269.117 17.9312 284.017 18.0325C299.019 18.1338 311.1 30.3914 310.999 45.3842Z" fill="#8C668D"/>
<path d="M155.651 5.36969C153.637 4.76187 151.221 3.24233 149.51 2.43191C171.458 0.405864 195.52 5.57229 215.857 13.8791C225.724 17.9312 235.087 23.0976 243.846 29.2771C246.665 31.2018 249.786 32.924 250.491 36.4696C251.397 40.7243 249.585 45.5868 249.988 50.0441C250.894 58.5535 255.324 66.4551 261.868 71.9255C265.09 74.5593 268.815 76.5854 272.741 77.9023C277.07 79.3205 282.004 78.4088 286.132 79.7257C290.159 81.0427 291.669 86.0065 293.179 89.5521C295.595 95.0224 297.71 100.695 299.522 106.47C302.744 116.802 306.066 128.655 305.764 139.494C305.361 153.677 295.293 165.934 285.125 172.924C278.581 177.483 268.714 180.927 260.358 182.649C255.223 183.662 249.988 184.169 244.752 183.966C242.638 183.865 239.014 184.169 237.201 183.865C235.792 183.561 235.288 184.27 234.886 182.548C234.584 181.332 235.59 179.509 235.993 178.293C240.322 164.009 245.658 149.523 245.558 134.429C245.558 129.465 246.464 125.008 245.96 120.145C245.457 115.486 245.86 110.927 245.054 106.47C243.645 97.7576 240.322 89.3495 235.893 81.7518C231.463 74.2554 225.925 68.2786 218.878 63.2134C214.347 59.9718 209.817 57.3379 204.38 55.3118C199.95 53.691 191.594 53.4884 188.775 49.4363C187.365 47.3089 187.264 43.662 186.56 41.2308C185.754 38.3943 184.747 35.7605 183.539 33.1266C181.123 27.6562 178.405 23.7054 174.881 19.0455C173.673 17.4247 172.364 16.513 170.753 15.0947C169.243 13.6765 167.632 12.2583 166.021 11.2452C162.195 8.61137 159.275 6.88923 155.651 5.36969Z" fill="#8C668D"/>
<path d="M54.1662 267.135C54.0655 282.229 41.8833 294.386 26.9827 294.284C11.9815 294.183 -0.100055 281.926 0.000624701 266.933C0.101304 251.839 12.2835 239.682 27.1841 239.784C42.0846 239.784 54.1662 252.041 54.1662 267.135Z" fill="#8C668D"/>
<path d="M114.674 230.97C115.883 231.274 117.292 231.376 118.299 232.287C120.01 233.807 119.708 235.428 119.608 237.555C119.507 240.797 119.809 243.836 120.111 247.179C120.615 251.94 121.42 256.701 122.024 261.462C122.527 265.616 124.34 268.452 125.347 272.403C127.461 280.406 131.689 289.321 137.227 295.601C141.858 300.869 149.308 306.238 155.953 307.96C158.067 308.568 160.182 309.986 157.262 310.29C155.047 310.594 152.329 310.189 150.617 310.088C144.677 309.784 138.838 309.379 132.897 308.568C122.326 307.15 111.855 304.617 101.687 301.072C96.8542 299.35 92.0216 297.526 87.3904 295.196C82.4571 292.765 77.0204 290.334 72.4898 287.396C68.966 285.066 65.5429 282.229 62.1198 279.697C57.6899 276.455 60.4083 272.504 60.811 267.844C61.7171 259.436 57.8913 249.813 52.1526 243.734C46.4138 237.656 37.4534 232.287 28.9963 232.794C25.3718 232.996 22.3515 233.3 20.3379 229.755C17.8209 225.399 16.1093 219.827 14.2971 215.167C10.3706 205.24 7.85362 194.704 6.04139 184.27C4.32984 174.241 5.03459 164.111 10.4713 155.399C15.2032 147.801 22.0494 141.419 29.8017 137.063C37.252 132.91 45.5077 130.478 53.9648 129.06C54.9716 128.857 58.5961 127.642 59.2001 129.161C59.8042 130.681 57.4886 131.795 56.5825 132.606C52.958 135.746 49.9376 139.595 47.5213 143.648C35.8425 163.604 39.5676 187.005 52.656 204.936C55.5757 208.886 59.5022 211.723 63.2273 214.661C64.7375 215.775 66.2477 216.991 67.9592 218.105C69.8721 219.321 71.3823 220.84 73.698 221.651C79.7387 223.879 86.1822 225.5 92.525 226.817C95.4447 227.425 98.3644 227.931 101.284 228.438" fill="#8C668D"/>
<path d="M37.3527 60.073C45.6084 61.6938 52.656 62.6055 60.7103 58.9587C67.6572 55.9196 73.3959 50.4492 77.0204 43.7633C78.6312 40.7242 79.8394 37.2799 80.4435 33.8356C81.0476 30.29 80.0408 25.6301 82.4571 22.7937C85.1754 19.7546 91.0148 18.1337 94.6393 16.6142C99.4719 14.5881 104.405 12.7647 109.439 11.2452C118.802 8.40869 128.77 6.18004 138.636 5.97743C148.402 5.77483 156.96 9.92823 164.209 16.3103C170.048 21.4767 174.579 27.9601 177.7 35.0513C179.311 38.6981 180.62 42.5476 181.727 46.3971C182.834 50.6518 183.841 53.1844 179.21 54.2987C161.591 58.6547 147.899 66.6576 140.952 84.183C137.025 94.0093 134.307 104.443 133.904 115.08C133.703 120.044 133.602 121.766 128.367 120.854C123.031 119.943 117.695 118.727 112.258 117.917C101.687 116.296 91.9209 117.208 81.3496 119.031C77.2217 119.74 69.2681 120.652 66.6504 120.956C64.2341 121.26 56.4818 122.779 51.3471 123.691C37.5541 126.122 23.4589 131.998 13.693 142.837C10.3706 146.585 7.85362 151.144 6.14207 155.804C5.84003 156.716 5.63867 158.843 4.5312 159.147C2.51761 159.653 3.42373 155.703 3.52441 154.69C4.12848 143.242 5.23596 131.795 7.65226 120.652C12.3842 99.8849 21.3447 75.0658 37.3527 60.073Z" fill="#8C668D"/>
<path d="M73.7986 27.3523C73.698 42.4464 61.5158 54.6027 46.6152 54.5014C31.614 54.4001 19.5324 42.1425 19.6331 27.1497C19.6331 12.0556 31.916 -0.100674 46.8166 0.000628567C61.8178 0.101931 73.8993 12.3595 73.7986 27.3523Z" fill="#8C668D"/>
</g>
</svg>
