<svg width="32" height="33" viewBox="0 0 32 33" fill="none" xmlns="http://www.w3.org/2000/svg">
<path d="M11.8392 23.2769H7.81446C7.29271 23.2769 6.86578 22.8497 6.86578 22.3275V19.203V18.1297C6.86578 17.6076 7.29271 17.1803 7.81446 17.1803H11.8392C12.361 17.1803 12.7879 17.6076 12.7879 18.1297V21.71V22.3275C12.7879 22.8497 12.361 23.2769 11.8392 23.2769ZM10.9065 23.9022V24.8879H12.1095V23.8788C12.0217 23.8941 11.9313 23.9022 11.8392 23.9022H10.9065V23.9022ZM7.54415 23.8789V24.8879H8.74721V23.9023H7.81446C7.72228 23.9022 7.63196 23.8942 7.54415 23.8789ZM18.3675 18.2023H13.4128V21.71H18.3675V18.2023ZM12.5711 32.0798H13.774V27.3921H12.5711V32.0798ZM6.24084 18.2023H1.08228H0.582275V18.7027V21.2097V21.71H1.08228H6.24084V18.2023ZM1.6214 31.5794V32.0798H2.1214H3.31709H3.81709V31.5794V22.3354H1.6214V31.5794ZM18.226 32.0798H19.429V27.3921H18.226V32.0798ZM6.09928 32.0798H7.30234V27.3921H6.09928V32.0798ZM5.31696 26.7667H14.5563V25.5132H5.31696V26.7667ZM24.6977 32.0798H25.9007V27.3921H24.6977V32.0798ZM6.48965 11.7891H3.50253C3.38921 11.7891 3.29653 11.9272 3.29653 12.0958V12.9075H6.69571V12.0958C6.69571 11.9271 6.60296 11.7891 6.48965 11.7891ZM0.582275 13.5329V14.9505V15.4508H1.08228H30.9177H31.4177V14.9505V13.5329H9.6769H0.582275ZM30.9177 0.0578613H1.08228H0.582275V0.558204V12.9075H2.98403V12.0958C2.98403 11.9491 3.02778 11.8107 3.09828 11.7057C3.19334 11.5642 3.33578 11.4764 3.50253 11.4764H6.48965C6.6564 11.4764 6.7989 11.5642 6.89396 11.7057C6.96446 11.8107 7.00821 11.9491 7.00821 12.0958V12.9075H9.6769H31.4177V0.558204V0.0578613H30.9177ZM25.5395 18.2023V21.71H30.9177H31.4177V21.2097V18.7027V18.2023H30.9177H25.5395ZM19.6708 23.8789V24.8879H20.8738V23.9023H19.9411C19.849 23.9022 19.7587 23.8942 19.6708 23.8789ZM24.9145 22.3275V21.71V18.1297C24.9145 17.6076 24.4876 17.1803 23.9658 17.1803H19.941C19.4192 17.1803 18.9923 17.6076 18.9923 18.1297V19.203V22.3275C18.9923 22.8497 19.4193 23.2769 19.941 23.2769H23.9658C24.4877 23.2769 24.9145 22.8497 24.9145 22.3275ZM23.0331 23.9022V24.8879H24.2362V23.8788C24.1483 23.8941 24.058 23.9022 23.9659 23.9022H23.0331V23.9022ZM28.1828 31.5794V32.0798H28.6828H29.8785H30.3785V31.5794V22.3354H28.1828V31.5794ZM17.4436 26.7667H26.683V25.5132H17.4436V26.7667Z" fill="white"/>
</svg>
