<svg width="32" height="33" viewBox="0 0 32 33" fill="none" xmlns="http://www.w3.org/2000/svg">
<path d="M9.19768 11.7158L10.7354 10.8155L10.5265 10.4582C10.4536 10.3334 10.3224 10.2639 10.1878 10.2639C10.1206 10.2639 10.0524 10.2812 9.99024 10.3177L7.46118 11.7983C7.27431 11.9077 7.2115 12.1481 7.32081 12.3351L9.64187 16.305C9.75125 16.4921 9.99143 16.5549 10.1782 16.4455L10.3906 16.3211L8.73424 13.488C8.37281 12.8701 8.58006 12.0773 9.19768 11.7158Z" fill="white"/>
<path d="M15.0399 15.1249L14.7797 14.6797L11.7203 15.4691C11.4521 15.5383 11.2093 15.5482 10.9684 15.5211L11.8342 17.0018C11.9435 17.1888 12.1838 17.2517 12.3706 17.1422L14.8996 15.6616C15.0864 15.5522 15.1493 15.3119 15.0399 15.1249Z" fill="white"/>
<path d="M8.14718 0.309082C6.64368 0.309082 5.4248 1.52879 5.4248 3.03332C5.42493 4.5386 6.64368 5.75118 8.13593 5.75731C8.13968 5.75806 8.14343 5.75856 8.14718 5.75937C8.15093 5.75862 8.15468 5.75806 8.15843 5.75731C9.65043 5.75124 10.8696 4.53898 10.8696 3.03332C10.8696 1.52879 9.65068 0.309082 8.14718 0.309082Z" fill="white"/>
<path d="M15.9352 11.6899C14.232 9.60186 13.4616 8.7272 13.2393 8.46465C12.4113 7.48767 11.5969 6.66748 10.3064 6.66748C8.47238 6.66748 7.81807 6.66748 5.98807 6.66748C4.65413 6.66748 3.6845 7.52131 3.10619 9.20515C3.03525 9.41192 2.957 9.63733 2.87325 9.87705C2.13544 11.9894 0.865879 15.4946 0.154379 17.4425C-0.0819958 18.0895 0.250442 18.8057 0.896942 19.0422C1.54319 19.2787 2.25913 18.9461 2.4955 18.2991C2.92469 17.1252 4.15125 13.7491 4.9725 11.4227C4.9055 11.9705 5.11707 10.8171 3.20219 20.7105C3.11925 21.1394 3.44782 21.5358 3.88194 21.5358C4.15032 21.5358 4.47238 21.5358 4.83307 21.5358C4.83307 21.9363 4.83307 30.2517 4.83307 30.583C4.83307 31.4096 5.50269 32.0797 6.32869 32.0797C7.15469 32.0797 7.82432 31.4096 7.82432 30.583C7.82432 30.2517 7.82432 21.9362 7.82432 21.5358C8.03932 21.5358 8.25507 21.5358 8.47013 21.5358C8.47013 21.9363 8.47013 30.2517 8.47013 30.583C8.47013 31.4096 9.13975 32.0797 9.96575 32.0797C10.7918 32.0797 11.4614 31.4096 11.4614 30.583C11.4614 30.2517 11.4614 21.9362 11.4614 21.5358C11.8219 21.5358 12.144 21.5358 12.4125 21.5358C12.8292 21.5358 13.1665 21.1619 13.0948 20.7285C13.0938 20.7225 13.0934 20.7165 13.0923 20.7104L12.5744 18.0345C12.4451 18.0767 12.3097 18.0991 12.1729 18.0991C11.3341 18.0991 11.0372 17.427 10.8463 17.1006L10.6339 17.2249C10.0148 17.5873 9.22163 17.3747 8.86282 16.761L6.54188 12.791C6.18057 12.1731 6.38788 11.3803 7.0055 11.0187L9.53457 9.53807C9.93769 9.30203 10.4566 9.29203 10.885 9.56578C11.3788 10.0783 12.5662 11.5242 12.7621 11.7599L10.8891 12.2432C10.2226 12.4152 9.82157 13.0954 9.9935 13.7623C10.1653 14.4291 10.8447 14.8307 11.5116 14.6586L15.2808 13.686C16.1609 13.4589 16.509 12.3936 15.9352 11.6899Z" fill="white"/>
<path d="M31.8748 9.14362C31.8664 7.49618 30.5202 6.15576 28.8738 6.15576H22.1375C20.839 6.15576 19.6414 6.91478 19.0864 8.08959C18.9017 8.48054 17.3902 11.6803 17.2122 12.0571C16.8614 12.799 17.2997 13.6693 18.0915 13.8399L22.9688 14.8915C23.6527 15.039 24.3279 14.6039 24.4754 13.9183C24.6229 13.2333 24.1876 12.5582 23.5029 12.4106L20.188 11.6958C21.5262 8.86311 21.4759 8.93297 21.4737 8.93623C21.8266 8.33288 22.6168 8.10472 23.2447 8.47241L23.4571 8.59674L23.666 8.23944C24.0253 7.62489 24.8187 7.41344 25.4371 7.7755L27.9661 9.25613C28.5838 9.61769 28.7912 10.4104 28.4298 11.0284L26.1087 14.9983C25.8291 15.4766 25.2572 15.7416 24.6852 15.6022C24.1382 16.0087 23.4294 16.1801 22.7239 16.0279L22.1105 15.8956C22.1105 15.8956 22.0911 17.3834 22.0911 30.4874C22.0911 31.3284 22.7723 32.0101 23.6127 32.0101C24.4532 32.0101 25.1344 31.3284 25.1344 30.4874V18.3163H25.7914V30.4875C25.7914 31.3284 26.4726 32.0101 27.3131 32.0101C28.1535 32.0101 28.8347 31.3284 28.8347 30.4875L28.8353 9.15763C28.8353 9.01891 28.9475 8.90627 29.0862 8.90583C29.2249 8.90539 29.3377 9.01741 29.3385 9.15619L29.3853 18.4786C29.3889 19.1773 29.9559 19.7411 30.6532 19.7411C30.6553 19.7411 30.6576 19.7411 30.6597 19.7411C31.3601 19.7376 31.9249 19.1667 31.9214 18.4658L31.8748 9.14362Z" fill="white"/>
<path d="M25.4633 5.31771C26.9147 5.31771 28.0914 4.14025 28.0914 2.68779C28.0914 1.23532 26.9147 0.0578613 25.4633 0.0578613C24.0118 0.0578613 22.8351 1.23532 22.8351 2.68779C22.8351 4.14025 24.0118 5.31771 25.4633 5.31771Z" fill="white"/>
<path d="M27.5106 10.0359L24.9815 8.55522C24.7946 8.44583 24.5545 8.50869 24.4451 8.69569L24.2363 9.053L25.774 9.9533C26.3916 10.3149 26.5989 11.1076 26.2376 11.7256L25.5481 12.9048C25.661 13.2537 25.6964 13.6322 25.6379 14.0157L27.651 10.5726C27.7603 10.3856 27.6974 10.1453 27.5106 10.0359Z" fill="white"/>
<path d="M25.3182 10.7328L22.7891 9.25221C22.6022 9.14289 22.3621 9.20568 22.2527 9.39274L21.4431 10.7774L23.7476 11.2743C24.2594 11.3847 24.6981 11.6493 25.0265 12.0085L25.4585 11.2696C25.5679 11.0825 25.505 10.8422 25.3182 10.7328Z" fill="white"/>
</svg>
