<svg width="32" height="32" viewBox="0 0 32 32" fill="none" xmlns="http://www.w3.org/2000/svg">
<path d="M3.37213 26.9832C4.43545 27.9593 5.76443 28.598 7.19088 28.8186C7.3465 28.0358 7.31773 27.2276 7.10683 26.4579C6.89593 25.6882 6.5087 24.9781 5.97582 24.384L3.37213 26.9832Z" fill="white"/>
<path d="M16.8176 25.8882C16.3982 25.8882 15.9883 26.0126 15.6395 26.2456C15.2908 26.4786 15.019 26.8098 14.8585 27.1973C14.6981 27.5848 14.6561 28.0111 14.7379 28.4225C14.8197 28.8338 15.0217 29.2117 15.3183 29.5082C15.6148 29.8048 15.9927 30.0067 16.404 30.0886C16.8154 30.1704 17.2417 30.1284 17.6292 29.9679C18.0167 29.8074 18.3479 29.5356 18.5809 29.1869C18.8139 28.8381 18.9383 28.4282 18.9383 28.0087C18.9376 27.4465 18.714 26.9075 18.3165 26.51C17.9189 26.1124 17.3799 25.8888 16.8176 25.8882Z" fill="white"/>
<path d="M15.6428 21.0699C15.2891 21.1354 14.9302 21.1685 14.5705 21.1686C13.1377 21.1687 11.7559 20.6364 10.6934 19.675L8.77222 21.5929L13.73 26.5419C14.9761 25.1957 15.6661 23.4274 15.6613 21.593C15.6613 21.4176 15.6552 21.2433 15.6428 21.0699Z" fill="white"/>
<path d="M6.41876 23.9424C7.01237 24.6064 7.44661 25.3972 7.68841 26.2544C7.93021 27.1116 7.97319 28.0128 7.81407 28.8891C8.80806 28.9604 9.80614 28.8281 10.7473 28.5004C11.6884 28.1727 12.5528 27.6565 13.2875 26.9833L8.32976 22.0344L6.41876 23.9424Z" fill="white"/>
<path d="M21.499 29.0921C21.4806 29.1047 21.4648 29.1209 21.4526 29.1397C21.4404 29.1585 21.4321 29.1794 21.428 29.2014C21.4239 29.2234 21.4243 29.246 21.4289 29.2679C21.4336 29.2898 21.4425 29.3105 21.4552 29.329C21.6157 29.5605 21.8614 29.7191 22.1384 29.77C22.4155 29.8209 22.7015 29.76 22.9338 29.6006L23.92 28.9225C24.0541 28.8298 24.1651 28.7076 24.2444 28.5651L23.1375 27.9656L21.499 29.0921Z" fill="white"/>
<path d="M22.5203 27.6314L20.7316 26.6626L21.7606 28.1538L22.5203 27.6314Z" fill="white"/>
<path d="M27.5108 19.6834L20.3638 20.1449L20.0408 21.6511L27.1866 22.1757C27.3772 22.1891 27.567 22.1413 27.7285 22.0392L29.5858 20.8552L28.318 19.9164C28.0856 19.7443 27.7991 19.6616 27.5108 19.6834Z" fill="white"/>
<path d="M28.925 5.38904C28.6168 4.80186 28.151 4.31222 27.58 3.9751L27.1213 4.96822L28.7692 5.72635L28.925 5.38904Z" fill="white"/>
<path d="M26.3481 26.1901L19.5926 23.7407L19.2863 25.1688L25.5644 28.5693C25.8357 28.7167 26.1534 28.7539 26.4514 28.6732L28.0006 28.2563L26.7698 26.5119C26.6656 26.3639 26.5184 26.2515 26.3481 26.1901Z" fill="white"/>
<path d="M27.25 22.8028C27.2136 22.8028 27.1774 22.8015 27.1412 22.7988L19.9087 22.2676L19.7251 23.1238L26.5614 25.6025C26.6279 25.6268 26.6927 25.6557 26.7552 25.6891L29.334 24.5994L27.4767 22.7851C27.4016 22.7967 27.3259 22.8026 27.25 22.8028Z" fill="white"/>
<path d="M17.7794 24.7644L18.821 19.8903L19.7367 20.086L18.6951 24.9601L17.7794 24.7644Z" fill="white"/>
<path d="M20.7339 19.4946L21.9757 16.8051C21.7843 16.7433 21.5968 16.6702 21.4141 16.5863C21.2313 16.5018 21.0536 16.4068 20.8818 16.3018L19.4561 19.3893L20.1311 19.5335L20.7339 19.4946Z" fill="white"/>
<path d="M17.3418 19.1944L17.2585 19.0736C16.9406 18.6136 16.8043 18.0522 16.876 17.4976C16.9279 17.0961 16.8292 16.6895 16.599 16.3564L8.35459 4.40989C8.09612 4.037 7.70051 3.78163 7.25426 3.69964C6.80802 3.61766 6.34747 3.71572 5.97334 3.97239C5.78837 4.09941 5.63026 4.26167 5.50808 4.44988C5.3859 4.63809 5.30205 4.84855 5.26132 5.06921C5.22059 5.28987 5.22378 5.5164 5.27071 5.73582C5.31765 5.95525 5.4074 6.16326 5.53484 6.34795L10.8598 14.0638C12.151 14.4953 13.3098 15.2511 14.2252 16.2587C15.1407 17.2663 15.7821 18.4921 16.0881 19.8186C16.4371 19.494 16.8725 19.2772 17.3418 19.1944ZM6.62321 5.79851C6.58905 5.82126 6.55075 5.83705 6.51049 5.84499C6.47022 5.85293 6.42879 5.85286 6.38855 5.84479C6.34832 5.83671 6.31006 5.82079 6.27598 5.79794C6.24189 5.77508 6.21264 5.74573 6.1899 5.71157L6.11878 5.60426C6.09603 5.5701 6.08024 5.5318 6.0723 5.49153C6.06436 5.45127 6.06443 5.40984 6.0725 5.3696C6.08058 5.32936 6.0965 5.29111 6.11935 5.25703C6.14221 5.22294 6.17155 5.19369 6.20571 5.17095C6.23987 5.14821 6.27818 5.13241 6.31844 5.12447C6.35871 5.11653 6.40014 5.1166 6.44038 5.12468C6.48061 5.13275 6.51887 5.14867 6.55295 5.17152C6.58703 5.19438 6.61628 5.22373 6.63903 5.25789L6.7104 5.3652C6.73313 5.39937 6.74891 5.43769 6.75683 5.47797C6.76475 5.51824 6.76466 5.55968 6.75657 5.59992C6.74847 5.64015 6.73253 5.6784 6.70964 5.71248C6.68676 5.74655 6.65739 5.77579 6.62321 5.79851ZM9.92946 10.7655C9.8953 10.7883 9.857 10.804 9.81674 10.812C9.77647 10.8199 9.73504 10.8199 9.6948 10.8118C9.65457 10.8037 9.61631 10.7878 9.58223 10.7649C9.54814 10.7421 9.51889 10.7127 9.49615 10.6786L6.82334 6.66326C6.79992 6.62912 6.78352 6.59066 6.77509 6.55012C6.76667 6.50958 6.76638 6.46777 6.77425 6.42712C6.78211 6.38647 6.79798 6.34779 6.82093 6.31333C6.84387 6.27886 6.87344 6.2493 6.90791 6.22636C6.94238 6.20342 6.98106 6.18756 7.02171 6.1797C7.06236 6.17183 7.10417 6.17213 7.14471 6.18056C7.18525 6.189 7.2237 6.2054 7.25784 6.22883C7.29199 6.25225 7.32113 6.28223 7.34359 6.31701L10.0165 10.3323C10.0624 10.4012 10.079 10.4856 10.0627 10.5669C10.0464 10.6481 9.99855 10.7196 9.92959 10.7655H9.92946Z" fill="white"/>
<path d="M17.1589 24.6618L18.2066 19.7772C17.2921 19.6831 16.4398 20.0784 16.2379 20.7172C16.2698 21.008 16.2859 21.3004 16.286 21.5929C16.287 22.4368 16.1536 23.2754 15.8908 24.0772C16.2396 24.5394 16.8152 24.6277 17.1589 24.6618Z" fill="white"/>
<path d="M24.5045 9.14466L22.8567 8.38647L22.2252 9.75416L23.873 10.5124L24.5045 9.14466Z" fill="white"/>
<path d="M5.97613 23.5009L7.8875 21.593L2.92963 16.6438C1.68355 17.9901 0.993529 19.7583 0.998377 21.5928C0.998377 21.7656 1.0044 21.9374 1.01644 22.1082C1.89462 21.9485 2.79765 21.9909 3.657 22.2322C4.51635 22.4735 5.30945 22.9073 5.97613 23.5009Z" fill="white"/>
<path d="M1.08636 22.7312C1.30787 24.1565 1.94967 25.4833 2.92961 26.5418L5.53355 23.9425C4.93674 23.4099 4.22437 23.0233 3.45261 22.8131C2.68085 22.6029 1.87081 22.5748 1.08636 22.7312Z" fill="white"/>
<path d="M10.2513 19.2333C9.65288 18.5744 9.21527 17.7858 8.97281 16.9293C8.73035 16.0729 8.68964 15.1719 8.85388 14.2971C8.67947 14.2846 8.50478 14.2783 8.32982 14.2783C6.49441 14.2752 4.72484 14.9619 3.37207 16.2024L8.32982 21.1512L10.2513 19.2333Z" fill="white"/>
<path d="M13.2875 16.2026C12.2262 15.2283 10.9002 14.5901 9.47669 14.3684C9.32344 15.1496 9.35363 15.9557 9.56488 16.7232C9.77612 17.4907 10.1627 18.1987 10.6941 18.7914L13.2875 16.2026Z" fill="white"/>
<path d="M15.5719 20.4467C15.3493 19.0242 14.7081 17.7003 13.73 16.6438L11.1362 19.2327C11.7316 19.7639 12.442 20.1499 13.2115 20.3605C13.9811 20.5711 14.789 20.6006 15.5719 20.4467Z" fill="white"/>
<path d="M20.4351 12.14L20.5019 11.9954L20.3733 11.9363C20.3925 12.0048 20.4131 12.0727 20.4351 12.14Z" fill="white"/>
<path d="M25.4329 14.4423C25.4991 14.4149 25.5651 14.3859 25.6309 14.3553L25.5007 14.2954L25.4329 14.4423Z" fill="white"/>
<path d="M20.2217 9.52026C20.1482 10.0698 20.1468 10.6266 20.2177 11.1765L20.7639 11.4278L21.3952 10.0601L20.2217 9.52026Z" fill="white"/>
<path d="M22.6777 14.5917C23.3061 14.8049 23.9811 14.8402 24.6284 14.6939L24.933 14.0342L23.2852 13.2761L22.6777 14.5917Z" fill="white"/>
<path d="M21.0696 12.2568L20.7657 12.915C21.0736 13.5025 21.5392 13.9925 22.1102 14.3301L22.7174 13.015L21.0696 12.2568Z" fill="white"/>
<path d="M25.7625 13.728L26.3079 13.979C26.772 13.6747 27.1951 13.3121 27.5667 12.8999L26.3941 12.3604L25.7625 13.728Z" fill="white"/>
<path d="M24.1787 11.3408L23.5472 12.7085L25.195 13.4667L25.8266 12.099L24.1787 11.3408Z" fill="white"/>
<path d="M28.0164 2.28752C27.41 2.01004 26.7505 1.86787 26.0836 1.8709C23.5993 1.8709 20.9512 3.74071 19.5722 6.72715C18.5798 8.87646 18.4165 11.2091 19.1241 13.1271C19.6237 14.4808 20.5058 15.4806 21.6753 16.0187C24.5836 17.3569 28.3714 15.365 30.1196 11.5791C31.112 9.42977 31.2753 7.09721 30.5676 5.17915C30.0681 3.82546 29.1859 2.82552 28.0164 2.28752ZM29.3945 11.2463C28.2133 13.804 25.9396 15.404 23.8018 15.404C23.2239 15.4066 22.6523 15.2834 22.1268 15.0428C21.1093 14.5747 20.3434 13.7091 19.912 12.5399C19.3064 10.8989 19.4468 8.90146 20.2973 7.05971C21.7967 3.81252 25.0573 2.10933 27.565 3.26315C28.5825 3.73127 29.3484 4.59677 29.7799 5.76602C30.3854 7.40702 30.2449 9.40446 29.3945 11.2462V11.2463Z" fill="white"/>
<path d="M29.075 6.55493L28.4437 7.92268L29.5088 8.41268C29.5539 7.84132 29.5179 7.26644 29.4017 6.70518L29.075 6.55493Z" fill="white"/>
<path d="M27.55 9.85768L29.0187 10.5334C29.2047 10.0586 29.342 9.5662 29.4287 9.06374L28.1816 8.48999L27.55 9.85768Z" fill="white"/>
<path d="M26.6562 11.7929L27.9796 12.4017C28.2848 11.9972 28.5493 11.5634 28.7691 11.1068L27.2878 10.4255L26.6562 11.7929Z" fill="white"/>
<path d="M25.3981 7.2096L23.7502 6.45142L23.1187 7.8191L24.7665 8.57729L25.3981 7.2096Z" fill="white"/>
<path d="M28.5071 6.29377L26.8593 5.53564L26.2278 6.90333L27.8756 7.66146L28.5071 6.29377Z" fill="white"/>
<path d="M21.3316 11.6892L22.9794 12.4473L23.6109 11.0797L21.9631 10.3215L21.3316 11.6892Z" fill="white"/>
<path d="M22.2889 8.12502L20.8095 7.44434C20.6042 7.90742 20.4449 8.38955 20.3339 8.88377L21.6574 9.49271L22.2889 8.12502Z" fill="white"/>
<path d="M27.6136 8.22883L25.9658 7.4707L25.3343 8.83839L26.982 9.59652L27.6136 8.22883Z" fill="white"/>
<path d="M27.0119 3.71431C26.6475 3.58748 26.2642 3.5232 25.8783 3.52418C25.6034 3.5252 25.3294 3.55501 25.0608 3.61312L24.9058 3.94881L26.5536 4.70693L27.0119 3.71431Z" fill="white"/>
<path d="M26.72 10.1639L25.0722 9.40576L24.4407 10.7734L26.0885 11.5316L26.72 10.1639Z" fill="white"/>
<path d="M23.1824 6.19003L21.94 5.61865C21.6127 6.01009 21.3259 6.43374 21.0841 6.88309L22.5509 7.55809L23.1824 6.19003Z" fill="white"/>
<path d="M24.076 4.25489L23.7525 4.1062C23.2511 4.38405 22.7909 4.73043 22.3851 5.13533L23.4444 5.62283L24.076 4.25489Z" fill="white"/>
<path d="M25.6601 6.64193L26.2916 5.27424L24.6438 4.51611L24.0123 5.8838L25.6601 6.64193Z" fill="white"/>
</svg>
