<svg width="70" height="70" viewBox="0 0 70 70" fill="none" xmlns="http://www.w3.org/2000/svg">
<path d="M57.6462 21.3916C58.1129 21.0182 58.1919 20.3431 57.8186 19.8762C57.4523 19.4094 56.7772 19.3304 56.3104 19.7038C56.1883 19.7972 54.3139 21.3053 52.8345 24.02L54.3067 25.9088C55.6137 23.0506 57.6029 21.4204 57.6462 21.3916Z" fill="white"/>
<path d="M67.5856 32.9758C66.0774 31.9776 63.4418 30.5986 60.5978 30.8501C57.4594 31.1301 54.9027 33.3133 53.7106 34.5342C53.2796 32.983 53.1217 31.4533 53.2438 29.9595C53.0283 30.0241 52.7985 30.0529 52.5687 30.0529H52.4825L51.0892 29.9667C50.8451 33.4786 51.8865 37.0766 54.206 40.7034C52.6405 41.2564 49.4589 42.6855 47.8717 45.5223C46.4713 48.0143 46.6437 50.9804 46.9381 52.7687C47.0817 53.6593 48.0082 54.1834 48.8484 53.8388C50.529 53.1565 53.1503 51.7561 54.5434 49.264C55.7858 47.052 55.7931 44.4523 55.5632 42.6497C56.0947 43.3535 56.6836 44.0645 57.3156 44.7683C57.531 45.0052 57.8255 45.1273 58.1199 45.1273C58.3712 45.1273 58.6298 45.0339 58.8381 44.8544C59.2833 44.4522 59.3192 43.7772 58.9242 43.3319C56.8272 40.9906 55.3047 38.6709 54.3567 36.3944C55.8792 37.3927 58.4718 38.7141 61.2655 38.4699C64.1095 38.2258 66.465 36.416 67.7793 35.1663C68.433 34.5413 68.3396 33.4785 67.5856 32.9758Z" fill="white"/>
<path d="M33.5149 24.3373C30.1674 17.9371 28.8573 11.2583 29.6243 4.45117C26.2459 5.33273 24.7036 7.28385 24.7963 10.5093C24.8461 12.2946 24.2247 14.057 23.0471 15.4734C20.9488 17.9988 19.8271 20.5318 19.6826 23.0096C22.2626 25.573 25.2907 27.9769 28.809 30.2218L33.5149 24.3373Z" fill="white"/>
<path d="M52.5553 27.9003C52.704 27.9052 52.774 27.8266 52.812 27.7555C52.8499 27.684 52.8766 27.5746 52.7867 27.4588L49.8873 23.7341C49.6959 23.4883 49.6202 23.1716 49.6798 22.8662C49.6875 22.8269 49.6973 22.7837 49.7009 22.7445C50.1553 19.8648 48.402 18.0217 46.7644 17.2986C45.1064 16.5667 42.5304 16.512 40.7273 18.7682L30.6635 31.3529C30.8715 31.4769 31.0677 31.6048 31.279 31.7279C31.793 32.0273 31.9669 32.687 31.6675 33.201C31.3681 33.7155 30.7067 33.8883 30.1946 33.5892C29.6543 33.2743 29.1396 32.9511 28.6183 32.6301C28.5338 32.5932 28.4516 32.549 28.3761 32.4887C28.37 32.4838 28.3658 32.4778 28.3599 32.4727C16.0377 24.8132 9.06244 15.3744 7.12609 3.69617C3.57455 5.75912 2.4931 8.44072 3.72248 12.0465C4.30668 13.7581 4.20003 15.6682 3.42156 17.4248C0.602964 23.7877 1.41726 28.8847 5.91148 33.0078C6.98732 33.995 7.75664 35.337 8.07929 36.787C9.51142 43.2302 13.6052 46.2694 20.5687 46.0948C21.1739 46.0661 21.6579 46.549 21.6732 47.144C21.6887 47.7387 21.2195 48.2333 20.6247 48.2486C20.4108 48.2542 20.1983 48.257 19.9886 48.257C19.0422 48.257 18.1418 48.1998 17.2857 48.0875L8.08558 59.5888C7.3246 60.5385 7.07564 61.8064 7.41935 62.9815C7.75035 64.1131 8.5667 64.9736 9.65867 65.3429C14.5365 66.9915 20.0343 66.5173 25.9985 63.9314C27.4517 63.2991 28.3191 61.8008 28.1564 60.2027L27.8114 56.7164C27.6094 54.7274 28.9811 52.9161 30.9351 52.5957C36.5128 51.6794 40.7202 49.3079 43.1012 45.7376C45.4388 42.2327 46.0152 37.5874 44.769 32.3035C44.4941 31.1358 44.7809 29.9378 45.5566 29.0163C46.3414 28.0843 47.4889 27.5936 48.7042 27.6628L52.5553 27.9003ZM44.8691 23.5185C44.0451 23.5185 43.3858 22.8532 43.3858 22.0292C43.3858 21.2113 44.0451 20.5459 44.8691 20.5459C45.6871 20.5459 46.3523 21.2113 46.3523 22.0292C46.3523 22.8531 45.6871 23.5185 44.8691 23.5185Z" fill="white"/>
</svg>
