<svg width="32" height="33" viewBox="0 0 32 33" fill="none" xmlns="http://www.w3.org/2000/svg">
<path d="M7.08451 15.443H0.661264L5.03314 12.3563H10.0011L7.08451 15.443ZM24.9155 15.443H31.3388L26.9669 12.3563H21.9988L24.9155 15.443ZM12.5466 32.0798H15.3391V22.8807H12.5466V32.0798ZM16.3713 32.0798H19.1638V22.8807H16.3713V32.0798ZM31.8873 16.476V32.0798H20.1961V22.3642V21.8477H19.68H16.3713H15.3391H12.0305H11.5143V22.3642V32.0798H0.112701V16.476H7.52914L11.7646 11.9935L15.4839 8.05734V0.0578613H16.5161H22.1753L21.9094 0.231105L18.9221 2.17762L21.9094 4.12421L22.1753 4.29739H16.5161V8.05727L20.2355 11.9935L24.4709 16.4759H31.8873V16.476ZM5.05539 26.957H2.11333V29.9011H5.05539V26.957ZM5.05539 22.3642H2.11333V25.3083H5.05539V22.3642ZM9.76276 26.957H6.8207V29.9011H9.76276V26.957ZM9.76276 22.3642H6.8207V25.3083H9.76276V22.3642ZM18.4125 16.8292C18.4125 15.4959 17.3324 14.4151 16 14.4151C14.6676 14.4151 13.5875 15.4959 13.5875 16.8292C13.5875 18.1625 14.6676 19.2434 16 19.2434C17.3324 19.2434 18.4125 18.1626 18.4125 16.8292ZM25.1793 26.957H22.2373V29.9011H25.1793V26.957ZM25.1793 22.3642H22.2373V25.3083H25.1793V22.3642ZM29.8867 26.957H26.9446V29.9011H29.8867V26.957ZM29.8867 22.3642H26.9446V25.3083H29.8867V22.3642Z" fill="white"/>
</svg>
