<svg width="36" height="36" viewBox="0 0 36 36" fill="none" xmlns="http://www.w3.org/2000/svg">
<g clip-path="url(#clip0_137_647)">
<path d="M1.40625 19.4063L31.1877 19.4063L26.2543 24.3158C25.7038 24.8636 25.7017 25.754 26.2496 26.3045C26.7974 26.855 27.6879 26.8571 28.2383 26.3093L35.5863 18.9968C35.5868 18.9963 35.5871 18.9958 35.5876 18.9954C36.1366 18.4475 36.1384 17.5543 35.5877 17.0046C35.5872 17.0042 35.5868 17.0037 35.5864 17.0033L28.2385 9.69076C27.6881 9.14302 26.7976 9.14492 26.2497 9.69554C25.7018 10.246 25.7039 11.1364 26.2544 11.6843L31.1877 16.5938L1.40625 16.5938C0.62958 16.5938 1.78379e-06 17.2233 1.71589e-06 18C1.64799e-06 18.7767 0.62958 19.4063 1.40625 19.4063Z" fill="black"/>
</g>
<defs>
<clipPath id="clip0_137_647">
<rect width="36" height="36" fill="white" transform="translate(36 36) rotate(-180)"/>
</clipPath>
</defs>
</svg>
