<svg width="64" height="64" viewBox="0 0 64 64" fill="none" xmlns="http://www.w3.org/2000/svg">
<g clip-path="url(#clip0_258_1704)">
<path d="M54.6667 8C52.4614 8 50.6667 6.20533 50.6667 4C50.6667 1.79467 52.4614 0 54.6667 0C56.872 0 58.6667 1.79467 58.6667 4C58.6667 6.20533 56.872 8 54.6667 8Z" fill="white"/>
<path d="M44.6667 24H42C40.1627 24 38.6667 22.504 38.6667 20.6667V11.3333C38.6667 9.496 40.1627 8 42 8H44.6667C46.504 8 48 9.496 48 11.3333V20.6667C48 22.504 46.504 24 44.6667 24ZM42.6667 20H44V12H42.6667V20Z" fill="white"/>
<path d="M20.6667 24H18C16.896 24 16 23.104 16 22C16 20.896 16.896 20 18 20H20V18H18C16.896 18 16 17.104 16 16C16 14.896 16.896 14 18 14H20.6667C22.504 14 24 15.496 24 17.3333V20.6667C24 22.504 22.504 24 20.6667 24ZM20.6667 18H20.6933H20.6667Z" fill="white"/>
<path d="M20.6667 18H18C16.896 18 16 17.104 16 16C16 14.896 16.896 14 18 14H20V12H18C16.896 12 16 11.104 16 10C16 8.896 16.896 8 18 8H20.6667C22.504 8 24 9.496 24 11.3333V14.6667C24 16.504 22.504 18 20.6667 18ZM20.6667 12H20.6933H20.6667Z" fill="white"/>
<path d="M32.6667 24H30C28.1627 24 26.6667 22.504 26.6667 20.6667V11.3333C26.6667 9.496 28.1627 8 30 8H34C35.104 8 36 8.896 36 10C36 11.104 35.104 12 34 12H30.6667V14H32.6667C34.504 14 36 15.496 36 17.3333V20.6667C36 22.504 34.504 24 32.6667 24ZM30.6667 20H32V18H30.6667V20Z" fill="white"/>
<path d="M53.3333 19.2427V20.6667C53.3333 24.264 51.128 27.3547 48 28.6613V36.16L51.2 35.52C56.6933 34.4267 64 32.3467 64 27.0667C64 23.68 60.4827 21.1253 53.3333 19.2427Z" fill="white"/>
<path d="M10.6667 21.9999C10.6667 20.9652 10.8907 19.9839 11.28 19.0879C3.72 20.9839 0 23.5866 0 27.0666C0 32.3466 7.30667 34.4266 12.8 35.5199L16 36.1599V29.0212C12.9307 28.1439 10.6667 25.3466 10.6667 21.9999Z" fill="white"/>
<path d="M39.9094 52.0562L31.9467 60.2695C31.1147 61.1202 30.0454 61.5922 28.9227 61.6002C27.7787 61.5175 26.7574 61.1628 25.944 60.3495C25.944 60.3495 20.4427 55.1335 20.32 55.2562L13.4774 62.0535C19.0134 63.3602 25.6 64.0002 32 64.0002C38.6694 64.0002 45.5547 63.3148 51.224 61.8908L39.9094 52.0562Z" fill="white"/>
<path d="M32 41.3335C18.048 41.3335 5.976 38.6828 0 34.8135V52.3495C0 56.1068 3.68267 58.8935 9.16 60.8028C9.22933 60.7015 9.27467 60.5868 9.36267 60.4988L17.496 52.4188C19.1627 50.7548 21.776 50.7575 23.44 52.4241L28.7387 57.4855L36.9333 49.3335C38.6293 47.6348 41.144 47.5601 42.8133 49.1335L55.3227 60.1548C55.448 60.2641 55.5227 60.4055 55.6133 60.5361C60.664 58.6348 64 55.9335 64 52.3521V34.8161C58.024 38.6828 45.952 41.3335 32 41.3335ZM29.3333 50.6668C27.8613 50.6668 26.6667 49.4721 26.6667 48.0001C26.6667 46.5281 27.8613 45.3335 29.3333 45.3335C30.8053 45.3335 32 46.5281 32 48.0001C32 49.4721 30.8053 50.6668 29.3333 50.6668Z" fill="white"/>
</g>
<defs>
<clipPath id="clip0_258_1704">
<rect width="64" height="64" fill="white"/>
</clipPath>
</defs>
</svg>
