<svg width="68" height="68" viewBox="0 0 68 68" fill="none" xmlns="http://www.w3.org/2000/svg">
<g id="LOGO">
<g id="Group">
<path id="Vector" d="M63.9053 62.0637C63.8833 65.364 61.2196 68.022 57.9616 67.9998C54.6816 67.9777 52.04 65.2976 52.062 62.0194C52.084 58.7191 54.7477 56.0611 58.0057 56.0833C61.2637 56.0833 63.9053 58.7634 63.9053 62.0637Z" fill="#FFCC37"/>
<path id="Vector_2" d="M51.8419 57.6338C50.8953 59.1843 50.6311 60.4468 50.477 62.2188C50.345 63.725 47.9895 64.2565 46.7568 64.7438C43.7409 65.9399 39.8886 67.2246 36.6085 66.7595C33.9009 66.3608 31.5895 64.5888 30.2026 62.4846C29.6743 61.6872 29.234 61.1113 28.9038 60.1367C28.3094 58.3647 27.7591 56.5706 27.605 54.6879C27.561 54.0012 27.605 53.3146 27.605 52.6058C27.605 51.8305 27.4289 51.3211 28.3755 51.2546C29.168 51.2103 30.3127 51.609 31.1052 51.7198C32.0958 51.8748 33.0644 52.1849 34.055 52.4286C35.5959 52.8051 36.9167 53.2481 38.1715 54.2449C38.5898 54.5771 39.0741 55.0201 39.3602 55.6403C39.6904 56.3048 39.7124 57.1243 40.5269 56.5263C41.6937 55.6403 42.7063 54.2227 43.6088 53.0709C44.7756 51.609 45.7441 50.0364 46.8448 48.5302C47.2851 47.91 47.7474 47.4227 48.0776 46.7361C48.3197 46.2267 48.5178 45.6951 48.826 45.2521C49.2003 44.6762 49.4204 44.2553 49.6846 43.613C49.7506 43.4358 49.9047 43.1478 49.9928 42.9263C50.1028 42.7048 50.2789 42.2618 50.477 42.0404C50.8733 41.5752 51.5337 41.6195 52.084 41.5752C53.0967 41.4866 54.1093 41.398 55.1219 41.243C57.1471 40.9329 59.1504 40.4234 61.0215 39.6039C64.2575 38.1641 65.8865 35.8384 67.1193 32.6267C67.6916 34.4651 67.2513 36.813 66.9872 38.6514C66.5689 41.5752 65.8645 44.499 64.7418 47.2234C64.6317 47.467 64.5217 47.6885 64.4336 47.9765C64.3015 48.3087 64.0594 48.641 63.9493 48.8846C63.7072 49.4162 63.5311 49.8814 63.2009 50.4351C62.4304 51.7419 61.5939 53.3367 60.4272 54.3335C59.4365 55.1751 57.5874 54.4221 56.3326 54.6879C55.9584 54.7543 53.669 55.8618 53.3168 56.1719C52.9866 56.4377 52.1941 57.0579 51.8419 57.6338Z" fill="#FFCC37"/>
</g>
<g id="Group_2">
<path id="Vector_3" d="M67.9999 9.92332C67.9779 13.2236 65.3142 15.8816 62.0563 15.8595C58.7762 15.8373 56.1346 13.1572 56.1566 9.87902C56.1786 6.57871 58.8423 3.92074 62.1003 3.94289C65.3803 3.96504 68.0219 6.64516 67.9999 9.92332Z" fill="#FFCC37"/>
<path id="Vector_4" d="M34.033 1.17412C33.5927 1.04122 33.0644 0.708971 32.6902 0.531773C37.4891 0.088778 42.7504 1.21842 47.1971 3.03469C49.3544 3.92068 51.4017 5.05032 53.3168 6.40146C53.9332 6.8223 54.6156 7.19885 54.7697 7.97409C54.9678 8.90438 54.5716 9.96757 54.6597 10.9422C54.8578 12.8027 55.8264 14.5304 57.2573 15.7265C57.9617 16.3024 58.7762 16.7454 59.6347 17.0333C60.5813 17.3434 61.66 17.1441 62.5625 17.432C63.443 17.72 63.7733 18.8053 64.1035 19.5806C64.6318 20.7766 65.0941 22.017 65.4903 23.2796C66.1947 25.5388 66.9212 28.1304 66.8551 30.5004C66.7671 33.6014 64.5657 36.2815 62.3424 37.8098C60.9115 38.8065 58.7542 39.5596 56.9271 39.9362C55.8044 40.1577 54.6597 40.2684 53.515 40.2241C53.0527 40.202 52.2602 40.2684 51.8639 40.202C51.5558 40.1355 51.4457 40.2906 51.3576 39.914C51.2916 39.6482 51.5117 39.2495 51.5998 38.9837C52.5464 35.8606 53.7131 32.6932 53.6911 29.3929C53.6911 28.3076 53.8892 27.333 53.7791 26.2698C53.6691 25.2509 53.7571 24.2542 53.581 23.2796C53.2728 21.3747 52.5464 19.5363 51.5778 17.875C50.6092 16.2359 49.3984 14.9291 47.8575 13.8216C46.8669 13.1128 45.8763 12.5369 44.6875 12.0939C43.719 11.7395 41.8918 11.6952 41.2755 10.8093C40.9673 10.3441 40.9452 9.54672 40.7912 9.01513C40.615 8.39493 40.3949 7.81904 40.1307 7.24315C39.6024 6.04706 39.0081 5.18322 38.2376 4.16433C37.9734 3.80994 37.6872 3.61059 37.335 3.30049C37.0048 2.9904 36.6526 2.6803 36.3004 2.4588C35.4639 1.88291 34.8255 1.50636 34.033 1.17412Z" fill="#FFCC37"/>
</g>
<g id="Group_3">
<path id="Vector_5" d="M11.8434 58.409C11.8214 61.7094 9.15776 64.3673 5.89976 64.3452C2.61974 64.323 -0.0218769 61.6429 0.000136591 58.3647C0.0221501 55.0644 2.68578 52.4065 5.94378 52.4286C9.20178 52.4286 11.8434 55.1087 11.8434 58.409Z" fill="#FFCC37"/>
<path id="Vector_6" d="M25.0735 50.5016C25.3376 50.5681 25.6458 50.5902 25.866 50.7896C26.2402 51.1218 26.1741 51.4762 26.1521 51.9413C26.1301 52.6501 26.1962 53.3146 26.2622 54.0456C26.3723 55.0866 26.5484 56.1276 26.6805 57.1687C26.7905 58.0768 27.1868 58.697 27.4069 59.5609C27.8692 61.3107 28.7938 63.2599 30.0045 64.6331C31.0171 65.7849 32.6461 66.9589 34.099 67.3354C34.5613 67.4683 35.0236 67.7784 34.3852 67.8449C33.9009 67.9113 33.3065 67.8227 32.9323 67.8006C31.6335 67.7341 30.3567 67.6455 29.0579 67.4683C26.7465 67.1582 24.4571 66.6045 22.2337 65.8292C21.1771 65.4527 20.1204 65.054 19.1078 64.5446C18.0291 64.013 16.8404 63.4814 15.8498 62.839C15.0793 62.3296 14.3309 61.7094 13.5824 61.1556C12.6138 60.4468 13.2082 59.583 13.2962 58.5641C13.4944 56.7257 12.6579 54.6215 11.4031 53.2925C10.1483 51.9635 8.18911 50.7896 6.33998 50.9003C5.54749 50.9446 4.88709 51.0111 4.44682 50.2358C3.89648 49.2834 3.52225 48.0651 3.126 47.0462C2.26748 44.8756 1.71714 42.572 1.3209 40.2906C0.946668 38.0978 1.10076 35.8828 2.28949 33.9779C3.32413 32.3167 4.82105 30.9212 6.51609 29.9688C8.14508 29.0607 9.95019 28.5291 11.7993 28.219C12.0195 28.1747 12.8119 27.9089 12.944 28.2411C13.0761 28.5734 12.5698 28.817 12.3717 28.9942C11.5792 29.6808 10.9188 30.5225 10.3905 31.4085C7.83689 35.772 8.6514 40.8886 11.5132 44.8091C12.1515 45.673 13.0101 46.2932 13.8246 46.9355C14.1548 47.1791 14.485 47.4449 14.8592 47.6886C15.2775 47.9544 15.6077 48.2866 16.114 48.4638C17.4348 48.9511 18.8436 49.3055 20.2305 49.5935C20.8689 49.7264 21.5073 49.8371 22.1457 49.9479" fill="#FFCC37"/>
</g>
<g id="Group_4">
<path id="Vector_7" d="M8.1672 13.1349C9.97231 13.4893 11.5133 13.6887 13.2743 12.8913C14.7933 12.2268 16.048 11.0307 16.8405 9.56883C17.1927 8.90434 17.4569 8.15125 17.589 7.39815C17.7211 6.62291 17.5009 5.60402 18.0293 4.98383C18.6236 4.31934 19.9004 3.96494 20.6929 3.63269C21.7495 3.1897 22.8282 2.791 23.9289 2.45876C25.9761 1.83857 28.1555 1.35127 30.3128 1.30697C32.4481 1.26267 34.3192 2.17081 35.9042 3.56625C37.181 4.69588 38.1716 6.11347 38.854 7.66395C39.2062 8.46134 39.4924 9.30303 39.7346 10.1447C39.9767 11.075 40.1969 11.6288 39.1842 11.8724C35.3319 12.8248 32.338 14.5747 30.8191 18.4066C29.9606 20.5551 29.3662 22.8365 29.2782 25.1623C29.2341 26.2476 29.2121 26.6241 28.0674 26.4248C26.9007 26.2254 25.734 25.9596 24.5452 25.7824C22.2338 25.4281 20.0985 25.6274 17.7871 26.0261C16.8846 26.1811 15.1455 26.3805 14.5731 26.4469C14.0448 26.5134 12.3498 26.8456 11.2271 27.045C8.21123 27.5766 5.12934 28.8613 2.99403 31.2313C2.26758 32.0508 1.71724 33.0476 1.34302 34.0665C1.27697 34.2658 1.23295 34.7309 0.990799 34.7974C0.550529 34.9081 0.74865 34.0443 0.770664 33.8228C0.902745 31.3199 1.14489 28.817 1.67322 26.3805C2.70785 21.8398 4.66706 16.4131 8.1672 13.1349Z" fill="#FFCC37"/>
<path id="Vector_8" d="M16.1361 5.98057C16.1141 9.28088 13.4505 11.9389 10.1925 11.9167C6.91247 11.8946 4.27085 9.21443 4.29286 5.93627C4.29286 2.63596 6.97851 -0.0220123 10.2365 0.000137436C13.5165 0.0222872 16.1581 2.70241 16.1361 5.98057Z" fill="#FFCC37"/>
</g>
<g id="Group_5">
<path id="Vector_9" d="M7.90293 47.9321C7.85891 47.7992 7.88092 47.6663 7.92495 47.5113C7.99099 47.3562 8.05703 47.2012 8.14508 47.0683C8.23314 46.9354 8.32119 46.8025 8.40924 46.6917C8.4973 46.581 8.56334 46.5145 8.60737 46.4702C8.80549 46.9575 9.11368 47.2676 9.50992 47.4448C9.90616 47.5999 10.3684 47.6442 10.8748 47.5777C11.3811 47.5113 11.9314 47.3341 12.5038 47.0683C13.0761 46.8025 13.6485 46.4924 14.1988 46.1158C14.7491 45.7614 15.2775 45.3628 15.7618 44.9419C16.2461 44.5211 16.6643 44.1224 16.9725 43.7237C17.3027 43.325 17.5228 42.9927 17.6329 42.6605C17.743 42.3504 17.721 42.1289 17.5449 41.9738L8.10105 41.0657C7.99099 41.0657 7.83689 41.0436 7.66078 41.0214C7.48468 40.9771 7.30857 40.9328 7.13246 40.8664C6.95635 40.7999 6.80226 40.7335 6.67018 40.6227C6.53809 40.5341 6.45004 40.4234 6.40601 40.2905C6.25192 39.781 6.31796 39.2494 6.56011 38.7178C6.80226 38.1862 7.17649 37.6546 7.66078 37.1673C8.14508 36.6579 8.71743 36.1928 9.35582 35.7276C9.99422 35.2625 10.6326 34.8638 11.249 34.4872C11.8654 34.1328 12.4377 33.8227 12.9881 33.5569C13.5164 33.3133 13.9126 33.1361 14.1768 33.0253C14.3309 32.9146 14.507 32.8481 14.7271 32.8038C14.9252 32.7595 15.1234 32.7374 15.2995 32.7595C15.4756 32.7817 15.6297 32.8481 15.7397 32.9589C15.8498 33.0696 15.9159 33.2025 15.8938 33.4019C15.8718 33.5791 15.7397 33.7784 15.4756 33.9999C15.2114 34.2214 14.9032 34.4429 14.507 34.6866C14.1107 34.9302 13.6705 35.1739 13.1642 35.4175C12.6799 35.6833 12.1736 35.927 11.6672 36.1928C11.1609 36.4586 10.6766 36.7244 10.2364 36.9901C9.77408 37.2559 9.39985 37.5217 9.06965 37.8097C8.73945 38.0755 8.51931 38.3634 8.38723 38.6292C8.25515 38.895 8.25515 39.1608 8.38723 39.4266C8.67341 39.4488 9.11368 39.4488 9.68603 39.4709C10.2584 39.4931 10.9188 39.5374 11.6452 39.5817C12.3717 39.626 13.1201 39.6924 13.9126 39.7589C14.7051 39.8253 15.4316 39.9139 16.114 40.0025C16.7964 40.0911 17.3908 40.2019 17.8971 40.3126C18.4034 40.4234 18.7336 40.5563 18.9097 40.6892C19.2619 40.9993 19.482 41.3536 19.5481 41.7302C19.6141 42.1067 19.5481 42.5054 19.372 42.9263C19.1959 43.3471 18.9537 43.768 18.6015 44.1888C18.2493 44.6097 17.853 45.0305 17.4128 45.4514C16.9725 45.85 16.4882 46.2487 15.9819 46.6031C15.4756 46.9797 14.9913 47.2898 14.507 47.5999C14.0447 47.8878 13.6044 48.1315 13.1862 48.3308C12.7679 48.5302 12.4377 48.6631 12.1736 48.7295C12.0195 48.796 11.8213 48.8624 11.5792 48.9067C11.337 48.951 11.0509 48.9953 10.7647 48.9953C10.4785 49.0175 10.1703 48.9953 9.86214 48.9732C9.55395 48.951 9.26777 48.8846 8.9816 48.8181C8.71743 48.7295 8.47528 48.6188 8.27716 48.4859C8.07904 48.3308 7.96897 48.1315 7.90293 47.9321Z" fill="#450546"/>
<path id="Vector_10" d="M19.9444 40.3791C19.5921 39.1609 19.4601 37.9648 19.5701 36.813C19.6802 35.6612 19.9664 34.598 20.4507 33.6234C20.935 32.6489 21.5954 31.8072 22.4099 31.0984C23.2464 30.3896 24.193 29.8801 25.2936 29.5479C25.7339 29.415 26.1081 29.3264 26.4383 29.3042C26.7465 29.2821 27.0327 29.3264 27.2528 29.4371C27.495 29.5479 27.6931 29.7694 27.8692 30.0573C28.0453 30.3453 28.1994 30.7661 28.3535 31.2977C27.561 30.899 26.7906 30.7218 26.0421 30.7883C25.2936 30.8547 24.6112 31.0984 23.9728 31.4971C23.3565 31.8958 22.8061 32.4274 22.3218 33.0918C21.8595 33.7563 21.4853 34.4651 21.2211 35.2404C20.957 36.0156 20.8249 36.813 20.8249 37.6547C20.8029 38.4742 20.957 39.2495 21.2432 39.9804C21.6174 40.7114 22.0136 41.3094 22.4539 41.7524C22.8942 42.1954 23.3785 42.5055 23.9068 42.7048C24.4351 42.9042 24.9855 42.9928 25.5578 42.9706C26.1522 42.9485 26.7465 42.8377 27.3849 42.6605C28.1774 42.3504 28.8158 42.0182 29.3661 41.5974C29.8945 41.1987 30.3788 40.7557 30.775 40.2905C31.1933 39.8254 31.5675 39.3381 31.9197 38.8286C32.2719 38.3192 32.6462 37.8097 33.0424 37.3003C33.1305 37.2782 33.2405 37.256 33.3506 37.2339C33.4607 37.2117 33.5487 37.2117 33.6588 37.2339C33.7468 37.256 33.8349 37.2782 33.9229 37.3446C34.011 37.4111 34.055 37.4996 34.099 37.6325C33.7028 38.3192 33.2846 39.0058 32.8003 39.7146C32.338 40.4234 31.8096 41.0879 31.2153 41.686C30.6429 42.3061 30.0045 42.8377 29.3001 43.3029C28.6177 43.768 27.8472 44.1003 27.0547 44.2996C26.3503 44.499 25.6018 44.5876 24.8754 44.499C24.1269 44.4325 23.4225 44.2332 22.7621 43.8788C22.1017 43.5465 21.5073 43.0814 21.001 42.4833C20.5607 41.9296 20.1865 41.2208 19.9444 40.3791Z" fill="#450546"/>
<path id="Vector_11" d="M46.1624 38.6514C45.3919 37.8983 44.5554 37.1895 43.6088 36.5029C42.6843 35.8162 41.7377 35.1296 40.7691 34.443C39.8005 33.7563 38.8319 33.0918 37.8853 32.4052C36.9387 31.7185 36.0362 31.0098 35.2217 30.2788C35.3978 31.0984 35.6179 31.9843 35.8821 32.9589C36.1463 33.9114 36.4104 34.8638 36.6966 35.8384C36.9608 36.7908 37.2249 37.7211 37.4451 38.6071C37.6872 39.4931 37.8413 40.2684 37.9514 40.9328C37.8193 41.1543 37.6872 41.3094 37.5551 41.398C37.423 41.4866 37.2469 41.553 37.0488 41.6195C36.8507 41.6859 36.6746 41.6859 36.5205 41.6638C36.3664 41.6416 36.2563 41.4423 36.1903 41.11C36.1022 40.5341 35.9702 39.8918 35.794 39.183C35.6179 38.4742 35.4418 37.7211 35.2437 36.9459C35.0456 36.1706 34.8034 35.3733 34.5613 34.5537C34.3191 33.7342 34.077 32.9368 33.8569 32.1837C33.6147 31.4085 33.3946 30.6775 33.1744 29.9909C32.9543 29.3042 32.7562 28.6619 32.5801 28.1303C32.6901 27.8202 32.8222 27.5987 32.9763 27.4658C33.1304 27.3329 33.3505 27.3107 33.6587 27.3993C33.9669 27.4879 34.3852 27.6873 34.9355 28.0195C35.4638 28.3518 36.1683 28.8169 37.0488 29.4371C37.9294 30.0573 39.008 30.8326 40.2848 31.7628C41.5616 32.6931 43.1245 33.8006 44.9297 35.1075L42.156 25.6495C42.222 25.3394 42.31 25.0958 42.4201 24.9629C42.5522 24.8078 42.7283 24.6971 42.9705 24.6306C43.1906 24.5642 43.3887 24.6085 43.5208 24.7414C43.6749 24.8743 43.785 25.0515 43.895 25.273C43.9831 25.4945 44.0711 25.716 44.1152 25.9596C44.1592 26.2033 44.2032 26.3583 44.2472 26.4912C44.3793 26.9342 44.5554 27.4879 44.7756 28.1524C44.9957 28.8169 45.2599 29.5479 45.524 30.3453C45.7882 31.1205 46.0523 31.94 46.3385 32.7596C46.6247 33.5791 46.8448 34.3765 47.065 35.1075C47.2851 35.8384 47.4392 36.5029 47.5713 37.1009C47.7034 37.6768 47.7254 38.1198 47.6813 38.4299L46.1624 38.6514Z" fill="#450546"/>
<path id="Vector_12" d="M45.0177 23.8554C45.0617 23.8332 45.1498 23.8111 45.3039 23.7668C45.436 23.7225 45.59 23.7003 45.7441 23.6782C45.8982 23.656 46.0523 23.6782 46.1844 23.7003C46.3165 23.7225 46.4266 23.8111 46.5146 23.9218C46.8668 23.6782 47.3731 23.4345 48.0556 23.1687C48.738 22.9029 49.4864 22.7036 50.345 22.5264C51.1815 22.3492 52.062 22.2606 52.9646 22.2384C53.8671 22.2163 54.7257 22.3049 55.5181 22.5042C56.3326 22.7036 57.0371 23.058 57.6535 23.5453C58.2698 24.0326 58.7101 24.7192 58.9522 25.6052C59.1284 26.2475 59.1724 26.912 59.0843 27.5987C58.9743 28.2853 58.7761 28.972 58.49 29.6586C58.1818 30.3452 57.8075 31.0097 57.3232 31.6742C56.839 32.3387 56.3326 32.9589 55.7823 33.557C55.232 34.155 54.6376 34.7087 54.0212 35.196C53.4048 35.7055 52.8105 36.1263 52.2161 36.4807C51.6218 36.8351 51.0714 37.1009 50.5431 37.3003C50.0148 37.4775 49.5745 37.5661 49.2003 37.5439L45.0177 23.8554ZM57.6094 26.1589C57.3453 25.5166 56.949 25.0071 56.4427 24.6306C55.9364 24.2541 55.342 23.9883 54.6816 23.8111C54.0212 23.656 53.3388 23.5674 52.6124 23.5896C51.8859 23.6117 51.1815 23.6782 50.5211 23.8332C49.8387 23.9661 49.2223 24.1655 48.6499 24.4091C48.0776 24.6528 47.6153 24.9185 47.2631 25.1843L50.5431 35.8605C50.9834 35.7276 51.4897 35.484 52.062 35.1074C52.6344 34.7309 53.2067 34.2879 53.7791 33.7784C54.3514 33.2469 54.9238 32.671 55.4521 32.0286C55.9804 31.3863 56.4427 30.7218 56.8169 30.0573C57.1912 29.3928 57.4553 28.7283 57.6094 28.0417C57.7855 27.3772 57.7855 26.7348 57.6094 26.1589Z" fill="#450546"/>
</g>
</g>
</svg>
