<svg width="68" height="68" viewBox="0 0 68 68" fill="none" xmlns="http://www.w3.org/2000/svg">
<g id="LOGO">
<g id="Group">
<path id="Vector" d="M63.9054 62.0637C63.8833 65.364 61.2197 68.022 57.9617 67.9998C54.6817 67.9777 52.0401 65.2976 52.0621 62.0194C52.0841 58.7191 54.7477 56.0611 58.0057 56.0833C61.2637 56.0833 63.9054 58.7634 63.9054 62.0637Z" fill="#1875C3"/>
<path id="Vector_2" d="M51.8419 57.6338C50.8954 59.1843 50.6312 60.4468 50.4771 62.2188C50.345 63.725 47.9896 64.2565 46.7568 64.7438C43.741 65.9399 39.8886 67.2246 36.6086 66.7595C33.9009 66.3608 31.5895 64.5888 30.2027 62.4846C29.6743 61.6872 29.2341 61.1113 28.9039 60.1367C28.3095 58.3647 27.7592 56.5706 27.6051 54.6879C27.5611 54.0012 27.6051 53.3146 27.6051 52.6058C27.6051 51.8305 27.429 51.3211 28.3756 51.2546C29.168 51.2103 30.3127 51.609 31.1052 51.7198C32.0958 51.8748 33.0644 52.1849 34.055 52.4286C35.596 52.8051 36.9168 53.2481 38.1716 54.2449C38.5898 54.5771 39.0741 55.0201 39.3603 55.6403C39.6905 56.3048 39.7125 57.1243 40.527 56.5263C41.6937 55.6403 42.7063 54.2227 43.6089 53.0709C44.7756 51.609 45.7442 50.0364 46.8449 48.5302C47.2852 47.91 47.7474 47.4227 48.0776 46.7361C48.3198 46.2267 48.5179 45.6951 48.8261 45.2521C49.2003 44.6762 49.4205 44.2553 49.6846 43.613C49.7507 43.4358 49.9048 43.1478 49.9928 42.9263C50.1029 42.7048 50.279 42.2618 50.4771 42.0404C50.8734 41.5752 51.5338 41.6195 52.0841 41.5752C53.0967 41.4866 54.1093 41.398 55.122 41.243C57.1472 40.9329 59.1504 40.4234 61.0216 39.6039C64.2576 38.1641 65.8866 35.8384 67.1193 32.6267C67.6917 34.4651 67.2514 36.813 66.9872 38.6514C66.569 41.5752 65.8646 44.499 64.7419 47.2234C64.6318 47.467 64.5217 47.6885 64.4337 47.9765C64.3016 48.3087 64.0594 48.641 63.9494 48.8846C63.7072 49.4162 63.5311 49.8814 63.2009 50.4351C62.4304 51.7419 61.5939 53.3367 60.4272 54.3335C59.4366 55.1751 57.5875 54.4221 56.3327 54.6879C55.9585 54.7543 53.6691 55.8618 53.3169 56.1719C52.9867 56.4377 52.1942 57.0579 51.8419 57.6338Z" fill="#1875C3"/>
</g>
<g id="Group_2">
<path id="Vector_3" d="M67.9999 9.92332C67.9779 13.2236 65.3142 15.8816 62.0562 15.8595C58.7762 15.8373 56.1346 13.1572 56.1566 9.87902C56.1786 6.57871 58.8423 3.92074 62.1003 3.94289C65.3803 3.96504 68.0219 6.64516 67.9999 9.92332Z" fill="#1875C3"/>
<path id="Vector_4" d="M34.033 1.17412C33.5928 1.04122 33.0644 0.708971 32.6902 0.531773C37.4891 0.088778 42.7504 1.21842 47.1971 3.03469C49.3544 3.92068 51.4017 5.05032 53.3169 6.40146C53.9332 6.8223 54.6156 7.19885 54.7697 7.97409C54.9679 8.90438 54.5716 9.96757 54.6597 10.9422C54.8578 12.8027 55.8264 14.5304 57.2573 15.7265C57.9617 16.3024 58.7762 16.7454 59.6347 17.0333C60.5813 17.3434 61.66 17.1441 62.5625 17.432C63.4431 17.72 63.7733 18.8053 64.1035 19.5806C64.6318 20.7766 65.0941 22.017 65.4903 23.2796C66.1948 25.5388 66.9212 28.1304 66.8552 30.5004C66.7671 33.6014 64.5658 36.2815 62.3424 37.8098C60.9115 38.8065 58.7542 39.5596 56.9271 39.9362C55.8044 40.1577 54.6597 40.2684 53.515 40.2241C53.0527 40.202 52.2602 40.2684 51.864 40.202C51.5558 40.1355 51.4457 40.2906 51.3577 39.914C51.2916 39.6482 51.5117 39.2495 51.5998 38.9837C52.5464 35.8606 53.7131 32.6932 53.6911 29.3929C53.6911 28.3076 53.8892 27.333 53.7791 26.2698C53.6691 25.2509 53.7571 24.2542 53.581 23.2796C53.2728 21.3747 52.5464 19.5363 51.5778 17.875C50.6092 16.2359 49.3984 14.9291 47.8575 13.8216C46.8669 13.1128 45.8763 12.5369 44.6876 12.0939C43.719 11.7395 41.8918 11.6952 41.2755 10.8093C40.9673 10.3441 40.9453 9.54672 40.7912 9.01513C40.6151 8.39493 40.3949 7.81904 40.1308 7.24315C39.6024 6.04706 39.0081 5.18322 38.2376 4.16433C37.9734 3.80994 37.6873 3.61059 37.335 3.30049C37.0048 2.9904 36.6526 2.6803 36.3004 2.4588C35.4639 1.88291 34.8255 1.50636 34.033 1.17412Z" fill="#1875C3"/>
</g>
<g id="Group_3">
<path id="Vector_5" d="M11.8434 58.409C11.8214 61.7094 9.15776 64.3673 5.89976 64.3452C2.61974 64.323 -0.0218769 61.6429 0.000136591 58.3647C0.0221501 55.0644 2.68578 52.4065 5.94378 52.4286C9.20178 52.4286 11.8434 55.1087 11.8434 58.409Z" fill="#1875C3"/>
<path id="Vector_6" d="M25.0735 50.5016C25.3377 50.5681 25.6459 50.5902 25.866 50.7896C26.2402 51.1218 26.1742 51.4762 26.1522 51.9413C26.1302 52.6501 26.1962 53.3146 26.2623 54.0456C26.3723 55.0866 26.5484 56.1276 26.6805 57.1687C26.7906 58.0768 27.1868 58.697 27.407 59.5609C27.8692 61.3107 28.7938 63.2599 30.0045 64.6331C31.0172 65.7849 32.6462 66.9589 34.0991 67.3354C34.5613 67.4683 35.0236 67.7784 34.3852 67.8449C33.9009 67.9113 33.3066 67.8227 32.9323 67.8006C31.6335 67.7341 30.3568 67.6455 29.058 67.4683C26.7466 67.1582 24.4571 66.6045 22.2338 65.8292C21.1771 65.4527 20.1205 65.054 19.1079 64.5446C18.0292 64.013 16.8405 63.4814 15.8499 62.839C15.0794 62.3296 14.3309 61.7094 13.5825 61.1556C12.6139 60.4468 13.2082 59.583 13.2963 58.5641C13.4944 56.7257 12.6579 54.6215 11.4031 53.2925C10.1484 51.9635 8.18916 50.7896 6.34003 50.9003C5.54754 50.9446 4.88714 51.0111 4.44687 50.2358C3.89653 49.2834 3.5223 48.0651 3.12606 47.0462C2.26753 44.8756 1.71719 42.572 1.32095 40.2906C0.946721 38.0978 1.10082 35.8828 2.28955 33.9779C3.32418 32.3167 4.8211 30.9212 6.51614 29.9688C8.14514 29.0607 9.95025 28.5291 11.7994 28.219C12.0195 28.1747 12.812 27.9089 12.9441 28.2411C13.0762 28.5734 12.5699 28.817 12.3717 28.9942C11.5792 29.6808 10.9188 30.5225 10.3905 31.4085C7.83695 35.772 8.65145 40.8886 11.5132 44.8091C12.1516 45.673 13.0101 46.2932 13.8246 46.9355C14.1548 47.1791 14.485 47.4449 14.8593 47.6886C15.2775 47.9544 15.6077 48.2866 16.114 48.4638C17.4348 48.9511 18.8437 49.3055 20.2306 49.5935C20.8689 49.7264 21.5073 49.8371 22.1457 49.9479" fill="#1875C3"/>
</g>
<g id="Group_4">
<path id="Vector_7" d="M8.16715 13.1349C9.97226 13.4893 11.5132 13.6887 13.2743 12.8913C14.7932 12.2268 16.048 11.0307 16.8405 9.56883C17.1927 8.90434 17.4568 8.15125 17.5889 7.39815C17.721 6.62291 17.5009 5.60402 18.0292 4.98383C18.6236 4.31934 19.9003 3.96494 20.6928 3.63269C21.7495 3.1897 22.8281 2.791 23.9288 2.45876C25.9761 1.83857 28.1554 1.35127 30.3127 1.30697C32.448 1.26267 34.3192 2.17081 35.9042 3.56625C37.181 4.69588 38.1716 6.11347 38.854 7.66395C39.2062 8.46134 39.4924 9.30303 39.7345 10.1447C39.9767 11.075 40.1968 11.6288 39.1842 11.8724C35.3318 12.8248 32.338 14.5747 30.819 18.4066C29.9605 20.5551 29.3662 22.8365 29.2781 25.1623C29.2341 26.2476 29.2121 26.6241 28.0674 26.4248C26.9006 26.2254 25.7339 25.9596 24.5452 25.7824C22.2338 25.4281 20.0985 25.6274 17.7871 26.0261C16.8845 26.1811 15.1454 26.3805 14.5731 26.4469C14.0448 26.5134 12.3497 26.8456 11.227 27.045C8.21118 27.5766 5.12928 28.8613 2.99397 31.2313C2.26753 32.0508 1.71719 33.0476 1.34296 34.0665C1.27692 34.2658 1.23289 34.7309 0.990746 34.7974C0.550475 34.9081 0.748597 34.0443 0.770611 33.8228C0.902692 31.3199 1.14484 28.817 1.67316 26.3805C2.7078 21.8398 4.667 16.4131 8.16715 13.1349Z" fill="#1875C3"/>
<path id="Vector_8" d="M16.136 5.98057C16.114 9.28088 13.4504 11.9389 10.1924 11.9167C6.91238 11.8946 4.27076 9.21443 4.29277 5.93627C4.29277 2.63596 6.97842 -0.0220123 10.2364 0.000137436C13.5164 0.0222872 16.158 2.70241 16.136 5.98057Z" fill="#1875C3"/>
</g>
<g id="Group_5">
<path id="Vector_9" d="M7.90299 47.9321C7.85896 47.7992 7.88097 47.6663 7.925 47.5113C7.99104 47.3562 8.05708 47.2012 8.14513 47.0683C8.23319 46.9354 8.32124 46.8025 8.4093 46.6917C8.49735 46.581 8.56339 46.5145 8.60742 46.4702C8.80554 46.9575 9.11373 47.2676 9.50997 47.4448C9.90622 47.5999 10.3685 47.6442 10.8748 47.5777C11.3811 47.5113 11.9315 47.3341 12.5038 47.0683C13.0762 46.8025 13.6485 46.4924 14.1989 46.1158C14.7492 45.7614 15.2775 45.3628 15.7618 44.9419C16.2461 44.5211 16.6644 44.1224 16.9726 43.7237C17.3028 43.325 17.5229 42.9927 17.633 42.6605C17.743 42.3504 17.721 42.1289 17.5449 41.9738L8.10111 41.0657C7.99104 41.0657 7.83695 41.0436 7.66084 41.0214C7.48473 40.9771 7.30862 40.9328 7.13251 40.8664C6.95641 40.7999 6.80231 40.7335 6.67023 40.6227C6.53815 40.5341 6.45009 40.4234 6.40607 40.2905C6.25197 39.781 6.31801 39.2494 6.56016 38.7178C6.80231 38.1862 7.17654 37.6546 7.66084 37.1673C8.14514 36.6579 8.71749 36.1928 9.35588 35.7276C9.99427 35.2625 10.6327 34.8638 11.249 34.4872C11.8654 34.1328 12.4378 33.8227 12.9881 33.5569C13.5164 33.3133 13.9127 33.1361 14.1768 33.0253C14.3309 32.9146 14.507 32.8481 14.7272 32.8038C14.9253 32.7595 15.1234 32.7374 15.2995 32.7595C15.4756 32.7817 15.6297 32.8481 15.7398 32.9589C15.8499 33.0696 15.9159 33.2025 15.8939 33.4019C15.8719 33.5791 15.7398 33.7784 15.4756 33.9999C15.2115 34.2214 14.9033 34.4429 14.507 34.6866C14.1108 34.9302 13.6705 35.1739 13.1642 35.4175C12.6799 35.6833 12.1736 35.927 11.6673 36.1928C11.161 36.4586 10.6767 36.7244 10.2364 36.9901C9.77413 37.2559 9.3999 37.5217 9.0697 37.8097C8.7395 38.0755 8.51936 38.3634 8.38728 38.6292C8.2552 38.895 8.2552 39.1608 8.38728 39.4266C8.67346 39.4488 9.11373 39.4488 9.68608 39.4709C10.2584 39.4931 10.9188 39.5374 11.6453 39.5817C12.3717 39.626 13.1202 39.6924 13.9127 39.7589C14.7052 39.8253 15.4316 39.9139 16.114 40.0025C16.7964 40.0911 17.3908 40.2019 17.8971 40.3126C18.4034 40.4234 18.7336 40.5563 18.9097 40.6892C19.262 40.9993 19.4821 41.3536 19.5481 41.7302C19.6142 42.1067 19.5481 42.5054 19.372 42.9263C19.1959 43.3471 18.9538 43.768 18.6016 44.1888C18.2493 44.6097 17.8531 45.0305 17.4128 45.4514C16.9726 45.85 16.4883 46.2487 15.9819 46.6031C15.4756 46.9797 14.9913 47.2898 14.507 47.5999C14.0448 47.8878 13.6045 48.1315 13.1862 48.3308C12.768 48.5302 12.4378 48.6631 12.1736 48.7295C12.0195 48.796 11.8214 48.8624 11.5792 48.9067C11.3371 48.951 11.0509 48.9953 10.7647 48.9953C10.4786 49.0175 10.1704 48.9953 9.86219 48.9732C9.554 48.951 9.26782 48.8846 8.98165 48.8181C8.71749 48.7295 8.47534 48.6188 8.27722 48.4859C8.07909 48.3308 7.96903 48.1315 7.90299 47.9321Z" fill="#450546"/>
<path id="Vector_10" d="M19.9444 40.3791C19.5922 39.1609 19.4601 37.9648 19.5701 36.813C19.6802 35.6612 19.9664 34.598 20.4507 33.6234C20.935 32.6489 21.5954 31.8072 22.4099 31.0984C23.2464 30.3896 24.193 29.8801 25.2937 29.5479C25.7339 29.415 26.1082 29.3264 26.4384 29.3042C26.7466 29.2821 27.0327 29.3264 27.2529 29.4371C27.495 29.5479 27.6931 29.7694 27.8692 30.0573C28.0453 30.3453 28.1994 30.7661 28.3535 31.2977C27.5611 30.899 26.7906 30.7218 26.0421 30.7883C25.2937 30.8547 24.6112 31.0984 23.9729 31.4971C23.3565 31.8958 22.8061 32.4274 22.3218 33.0918C21.8596 33.7563 21.4853 34.4651 21.2212 35.2404C20.957 36.0156 20.8249 36.813 20.8249 37.6547C20.8029 38.4742 20.957 39.2495 21.2432 39.9804C21.6174 40.7114 22.0136 41.3094 22.4539 41.7524C22.8942 42.1954 23.3785 42.5055 23.9068 42.7048C24.4351 42.9042 24.9855 42.9928 25.5578 42.9706C26.1522 42.9485 26.7466 42.8377 27.3849 42.6605C28.1774 42.3504 28.8158 42.0182 29.3662 41.5974C29.8945 41.1987 30.3788 40.7557 30.775 40.2905C31.1933 39.8254 31.5675 39.3381 31.9197 38.8286C32.2719 38.3192 32.6462 37.8097 33.0424 37.3003C33.1305 37.2782 33.2405 37.256 33.3506 37.2339C33.4607 37.2117 33.5487 37.2117 33.6588 37.2339C33.7468 37.256 33.8349 37.2782 33.923 37.3446C34.011 37.4111 34.055 37.4996 34.0991 37.6325C33.7028 38.3192 33.2846 39.0058 32.8003 39.7146C32.338 40.4234 31.8097 41.0879 31.2153 41.686C30.6429 42.3061 30.0046 42.8377 29.3001 43.3029C28.6177 43.768 27.8472 44.1003 27.0547 44.2996C26.3503 44.499 25.6019 44.5876 24.8754 44.499C24.1269 44.4325 23.4225 44.2332 22.7621 43.8788C22.1017 43.5465 21.5073 43.0814 21.001 42.4833C20.5608 41.9296 20.1865 41.2208 19.9444 40.3791Z" fill="#450546"/>
<path id="Vector_11" d="M46.1625 38.6514C45.392 37.8983 44.5555 37.1895 43.6089 36.5029C42.6843 35.8162 41.7377 35.1296 40.7692 34.443C39.8006 33.7563 38.832 33.0918 37.8854 32.4052C36.9388 31.7185 36.0363 31.0098 35.2218 30.2788C35.3979 31.0984 35.618 31.9843 35.8822 32.9589C36.1463 33.9114 36.4105 34.8638 36.6967 35.8384C36.9608 36.7908 37.225 37.7211 37.4451 38.6071C37.6873 39.4931 37.8414 40.2684 37.9514 40.9328C37.8193 41.1543 37.6873 41.3094 37.5552 41.398C37.4231 41.4866 37.247 41.553 37.0489 41.6195C36.8507 41.6859 36.6746 41.6859 36.5205 41.6638C36.3665 41.6416 36.2564 41.4423 36.1903 41.11C36.1023 40.5341 35.9702 39.8918 35.7941 39.183C35.618 38.4742 35.4419 37.7211 35.2438 36.9459C35.0456 36.1706 34.8035 35.3733 34.5613 34.5537C34.3192 33.7342 34.077 32.9368 33.8569 32.1837C33.6148 31.4085 33.3946 30.6775 33.1745 29.9909C32.9544 29.3042 32.7562 28.6619 32.5801 28.1303C32.6902 27.8202 32.8223 27.5987 32.9764 27.4658C33.1305 27.3329 33.3506 27.3107 33.6588 27.3993C33.967 27.4879 34.3852 27.6873 34.9356 28.0195C35.4639 28.3518 36.1683 28.8169 37.0489 29.4371C37.9294 30.0573 39.0081 30.8326 40.2849 31.7628C41.5616 32.6931 43.1246 33.8006 44.9297 35.1075L42.156 25.6495C42.222 25.3394 42.3101 25.0958 42.4202 24.9629C42.5522 24.8078 42.7284 24.6971 42.9705 24.6306C43.1906 24.5642 43.3888 24.6085 43.5208 24.7414C43.6749 24.8743 43.785 25.0515 43.8951 25.273C43.9831 25.4945 44.0712 25.716 44.1152 25.9596C44.1592 26.2033 44.2033 26.3583 44.2473 26.4912C44.3794 26.9342 44.5555 27.4879 44.7756 28.1524C44.9957 28.8169 45.2599 29.5479 45.5241 30.3453C45.7882 31.1205 46.0524 31.94 46.3386 32.7596C46.6247 33.5791 46.8449 34.3765 47.065 35.1075C47.2852 35.8384 47.4392 36.5029 47.5713 37.1009C47.7034 37.6768 47.7254 38.1198 47.6814 38.4299L46.1625 38.6514Z" fill="#450546"/>
<path id="Vector_12" d="M45.0178 23.8554C45.0618 23.8332 45.1498 23.8111 45.3039 23.7668C45.436 23.7225 45.5901 23.7003 45.7442 23.6782C45.8983 23.656 46.0524 23.6782 46.1845 23.7003C46.3166 23.7225 46.4266 23.8111 46.5147 23.9218C46.8669 23.6782 47.3732 23.4345 48.0556 23.1687C48.738 22.9029 49.4865 22.7036 50.345 22.5264C51.1815 22.3492 52.0621 22.2606 52.9646 22.2384C53.8672 22.2163 54.7257 22.3049 55.5182 22.5042C56.3327 22.7036 57.0371 23.058 57.6535 23.5453C58.2699 24.0326 58.7102 24.7192 58.9523 25.6052C59.1284 26.2475 59.1724 26.912 59.0844 27.5987C58.9743 28.2853 58.7762 28.972 58.49 29.6586C58.1818 30.3452 57.8076 31.0097 57.3233 31.6742C56.839 32.3387 56.3327 32.9589 55.7824 33.557C55.232 34.155 54.6377 34.7087 54.0213 35.196C53.4049 35.7055 52.8105 36.1263 52.2162 36.4807C51.6218 36.8351 51.0715 37.1009 50.5431 37.3003C50.0148 37.4775 49.5746 37.5661 49.2003 37.5439L45.0178 23.8554ZM57.6095 26.1589C57.3453 25.5166 56.9491 25.0071 56.4428 24.6306C55.9365 24.2541 55.3421 23.9883 54.6817 23.8111C54.0213 23.656 53.3389 23.5674 52.6124 23.5896C51.886 23.6117 51.1815 23.6782 50.5211 23.8332C49.8387 23.9661 49.2223 24.1655 48.65 24.4091C48.0776 24.6528 47.6154 24.9185 47.2631 25.1843L50.5431 35.8605C50.9834 35.7276 51.4897 35.484 52.0621 35.1074C52.6344 34.7309 53.2068 34.2879 53.7791 33.7784C54.3515 33.2469 54.9238 32.671 55.4522 32.0286C55.9805 31.3863 56.4428 30.7218 56.817 30.0573C57.1912 29.3928 57.4554 28.7283 57.6095 28.0417C57.7856 27.3772 57.7856 26.7348 57.6095 26.1589Z" fill="#450546"/>
</g>
</g>
</svg>
