<svg width="100" height="100" viewBox="0 0 100 100" fill="none" xmlns="http://www.w3.org/2000/svg">
<path d="M93.9785 91.2702C93.9461 96.1236 90.029 100.032 85.2378 99.9998C80.4143 99.9672 76.5295 96.0259 76.5619 91.205C76.5943 86.3516 80.5114 82.4429 85.3025 82.4754C90.0937 82.4754 93.9785 86.4168 93.9785 91.2702Z" fill="#84C825"/>
<path d="M76.2382 84.7556C74.8461 87.0357 74.4577 88.8924 74.231 91.4982C74.0368 93.7132 70.5729 94.4949 68.76 95.2115C64.325 96.9705 58.6597 98.8597 53.8362 98.1757C49.8543 97.5894 46.4552 94.9835 44.4157 91.8891C43.6387 90.7165 42.9913 89.8695 42.5057 88.4363C41.6316 85.8305 40.8223 83.192 40.5957 80.4233C40.531 79.4136 40.5957 78.4038 40.5957 77.3615C40.5957 76.2214 40.3367 75.4722 41.7287 75.3745C42.8942 75.3093 44.5776 75.8957 45.743 76.0585C47.1998 76.2865 48.6242 76.7426 50.0809 77.1009C52.347 77.6546 54.2894 78.3061 56.1346 79.7719C56.7497 80.2605 57.4619 80.9119 57.8828 81.824C58.3684 82.8012 58.4007 84.0064 59.5985 83.1269C61.3143 81.824 62.8034 79.7393 64.1307 78.0455C65.8465 75.8957 67.2709 73.583 68.8895 71.368C69.537 70.4559 70.2168 69.7393 70.7024 68.7296C71.0585 67.9804 71.3499 67.1986 71.8031 66.5472C72.3534 65.7003 72.6772 65.0814 73.0656 64.1368C73.1627 63.8762 73.3894 63.4527 73.5188 63.127C73.6807 62.8013 73.9397 62.1498 74.231 61.8241C74.8138 61.14 75.7849 61.2052 76.5943 61.14C78.0834 61.0097 79.5726 60.8794 81.0617 60.6514C84.04 60.1954 86.9859 59.4462 89.7376 58.241C94.4964 56.1238 96.892 52.7036 98.7049 47.9805C99.5466 50.684 98.8991 54.1368 98.5106 56.8404C97.8956 61.14 96.8596 65.4397 95.2086 69.4462C95.0468 69.8045 94.8849 70.1302 94.7554 70.5537C94.5612 71.0423 94.2051 71.5309 94.0432 71.8892C93.6871 72.6709 93.4281 73.355 92.9425 74.1693C91.8095 76.0911 90.5793 78.4364 88.8636 79.9022C87.4068 81.1399 84.6875 80.0325 82.8422 80.4233C82.2919 80.5211 78.9251 82.1497 78.4071 82.6057C77.9215 82.9966 76.7561 83.9087 76.2382 84.7556Z" fill="#84C825"/>
<path d="M99.9998 14.593C99.9674 19.4464 96.0503 23.3552 91.2591 23.3226C86.4356 23.29 82.5509 19.3487 82.5832 14.5278C82.6156 9.67443 86.5327 5.76565 91.3239 5.79822C96.1474 5.83079 100.032 9.77215 99.9998 14.593Z" fill="#1875C3"/>
<path d="M50.0486 1.72657C49.4011 1.53113 48.6242 1.04254 48.0738 0.781951C55.1311 0.130488 62.8682 1.79172 69.4075 4.46272C72.58 5.76564 75.5907 7.42688 78.4071 9.41384C79.3136 10.0327 80.3171 10.5865 80.5437 11.7265C80.8351 13.0946 80.2524 14.6581 80.3819 16.0913C80.6732 18.8275 82.0976 21.3682 84.2019 23.1271C85.2378 23.974 86.4356 24.6255 87.6981 25.049C89.0902 25.505 90.6764 25.2118 92.0037 25.6353C93.2986 26.0587 93.7842 27.6548 94.2698 28.7949C95.0468 30.5538 95.7266 32.3779 96.3093 34.2346C97.3452 37.5571 98.4135 41.3681 98.3164 44.8534C98.1869 49.4137 94.9496 53.355 91.68 55.6026C89.5758 57.0684 86.4032 58.1759 83.7163 58.7296C82.0653 59.0553 80.3819 59.2182 78.6985 59.1531C78.0187 59.1205 76.8532 59.2182 76.2705 59.1205C75.8173 59.0228 75.6554 59.2508 75.526 58.697C75.4288 58.3062 75.7526 57.7198 75.8821 57.329C77.2741 52.7361 78.9898 48.0782 78.9575 43.2248C78.9575 41.6287 79.2488 40.1955 79.087 38.632C78.9251 37.1336 79.0546 35.6678 78.7956 34.2346C78.3424 31.4333 77.2741 28.7297 75.8497 26.2867C74.4253 23.8763 72.6448 21.9545 70.3787 20.3258C68.9219 19.2835 67.4651 18.4366 65.717 17.7851C64.2926 17.264 61.6057 17.1988 60.6992 15.8959C60.246 15.2119 60.2136 14.0392 59.987 13.2575C59.728 12.3454 59.4043 11.4985 59.0158 10.6516C58.2389 8.89267 57.3648 7.62232 56.2318 6.12395C55.8433 5.60278 55.4224 5.30962 54.9045 4.8536C54.4189 4.39757 53.9009 3.94155 53.383 3.61582C52.1528 2.76891 51.214 2.21517 50.0486 1.72657Z" fill="#1875C3"/>
<path d="M17.4168 85.8956C17.3844 90.749 13.4673 94.6578 8.67611 94.6252C3.85257 94.5927 -0.0321719 90.6513 0.000200869 85.8305C0.0325737 80.9771 3.94968 77.0683 8.74086 77.1009C13.532 77.1009 17.4168 81.0422 17.4168 85.8956Z" fill="#FFCC37"/>
<path d="M36.8728 74.267C37.2613 74.3647 37.7145 74.3973 38.0382 74.6905C38.5886 75.1791 38.4915 75.7002 38.4591 76.3843C38.4267 77.4266 38.5238 78.4038 38.621 79.4787C38.7828 81.0096 39.0418 82.5406 39.236 84.0715C39.3979 85.407 39.9806 86.3191 40.3043 87.5894C40.9842 90.1627 42.3438 93.0291 44.1243 95.0487C45.6135 96.7425 48.0091 98.4689 50.1457 99.0226C50.8255 99.218 51.5053 99.6741 50.5665 99.7718C49.8543 99.8695 48.9803 99.7392 48.4299 99.7066C46.5199 99.6089 44.6423 99.4786 42.7323 99.218C39.3332 98.762 35.9664 97.9477 32.6967 96.8076C31.1428 96.2539 29.5889 95.6676 28.0998 94.9184C26.5135 94.1366 24.7654 93.3549 23.3086 92.4103C22.1756 91.6611 21.0749 90.749 19.9742 89.9347C18.5498 88.8924 19.4239 87.622 19.5534 86.1236C19.8447 83.4201 18.6146 80.3256 16.7693 78.3712C14.9241 76.4168 12.0429 74.6905 9.32357 74.8533C8.15815 74.9185 7.18696 75.0162 6.53951 73.8761C5.73019 72.4755 5.17985 70.684 4.59714 69.1856C3.3346 65.9934 2.52528 62.6058 1.94257 59.2508C1.39223 56.026 1.61884 52.7687 3.36697 49.9674C4.8885 47.5244 7.08985 45.4723 9.58255 44.0717C11.9781 42.7362 14.6327 41.9544 17.352 41.4984C17.6758 41.4333 18.8412 41.0424 19.0354 41.531C19.2296 42.0196 18.4851 42.3779 18.1937 42.6385C17.0283 43.6482 16.0571 44.886 15.2802 46.1889C11.5249 52.6059 12.7227 60.1303 16.9312 65.8957C17.87 67.1661 19.1325 68.0781 20.3303 69.0227C20.8159 69.381 21.3015 69.7719 21.8518 70.1302C22.4669 70.5211 22.9525 71.0097 23.6971 71.2703C25.6395 71.9869 27.7113 72.5081 29.7508 72.9315C30.6896 73.1269 31.6284 73.2898 32.5672 73.4527" fill="#FFCC37"/>
<path d="M12.0105 19.3161C14.6651 19.8373 16.9312 20.1304 19.521 18.9578C21.7547 17.9806 23.6 16.2216 24.7654 14.0718C25.2834 13.0946 25.6718 11.9871 25.8661 10.8796C26.0603 9.73958 25.7366 8.24121 26.5135 7.32916C27.3876 6.35197 29.2652 5.8308 30.4306 5.3422C31.9845 4.69074 33.5708 4.10442 35.1894 3.61582C38.2001 2.70378 41.405 1.98717 44.5775 1.92202C47.7177 1.85687 50.4694 3.19237 52.8002 5.24448C54.6779 6.90571 56.1346 8.9904 57.1382 11.2705C57.6562 12.4432 58.077 13.6809 58.4331 14.9187C58.7892 16.2868 59.1129 17.1011 57.6238 17.4594C51.9586 18.8601 47.5558 21.4333 45.3221 27.0685C44.0596 30.2281 43.1855 33.5831 43.056 37.0033C42.9913 38.5994 42.9589 39.1531 41.2755 38.86C39.5598 38.5668 37.844 38.1759 36.0959 37.9154C32.6967 37.3942 29.5566 37.6873 26.1574 38.2737C24.8301 38.5017 22.2727 38.7948 21.431 38.8926C20.654 38.9903 18.1613 39.4789 16.5103 39.772C12.0753 40.5538 7.54306 42.443 4.4029 45.9284C3.33459 47.1336 2.52527 48.5994 1.97494 50.0977C1.87782 50.3909 1.81307 51.0749 1.45697 51.1726C0.809514 51.3355 1.10087 50.0652 1.13324 49.7394C1.32748 46.0587 1.68358 42.3779 2.46053 38.7948C3.98205 32.1173 6.86323 24.1369 12.0105 19.3161Z" fill="#FF5656"/>
<path d="M23.7295 8.79496C23.6971 13.6484 19.78 17.5571 14.9888 17.5246C10.1653 17.492 6.28053 13.5506 6.3129 8.72981C6.3129 3.87641 10.2624 -0.0323711 15.0536 0.000202112C19.8771 0.0327753 23.7618 3.97413 23.7295 8.79496Z" fill="#FF5656"/>
<path d="M11.622 70.4885C11.5573 70.2931 11.5897 70.0976 11.6544 69.8696C11.7515 69.6416 11.8486 69.4136 11.9781 69.2182C12.1076 69.0227 12.2371 68.8273 12.3666 68.6644C12.4961 68.5015 12.5932 68.4038 12.658 68.3387C12.9493 69.0553 13.4025 69.5113 13.9853 69.7719C14.568 69.9999 15.2478 70.0651 15.9924 69.9673C16.7369 69.8696 17.5463 69.609 18.388 69.2182C19.2296 68.8273 20.0713 68.3713 20.8807 67.8175C21.69 67.2963 22.4669 66.71 23.1791 66.0911C23.8913 65.4722 24.5064 64.8859 24.9596 64.2996C25.4452 63.7133 25.769 63.2247 25.9308 62.7361C26.0927 62.2801 26.0603 61.9543 25.8013 61.7263L11.9134 60.3908C11.7515 60.3908 11.5249 60.3583 11.2659 60.3257C11.007 60.2605 10.748 60.1954 10.489 60.0977C10.23 60 10.0034 59.9022 9.80916 59.7394C9.61492 59.6091 9.48543 59.4462 9.42069 59.2508C9.19408 58.5016 9.29119 57.7198 9.64729 56.9381C10.0034 56.1563 10.5537 55.3746 11.2659 54.658C11.9781 53.9088 12.8198 53.2247 13.7586 52.5407C14.6975 51.8567 15.6363 51.2703 16.5427 50.7166C17.4491 50.1954 18.2908 49.7394 19.1002 49.3485C19.8771 48.9902 20.4598 48.7296 20.8483 48.5668C21.0749 48.4039 21.3339 48.3062 21.6576 48.241C21.949 48.1759 22.2403 48.1433 22.4993 48.1759C22.7583 48.2085 22.9849 48.3062 23.1468 48.4691C23.3086 48.6319 23.4057 48.8274 23.3734 49.1205C23.341 49.3811 23.1468 49.6743 22.7583 50C22.3698 50.3257 21.9166 50.6515 21.3339 51.0098C20.7512 51.3681 20.1037 51.7264 19.3591 52.0847C18.6469 52.4756 17.9024 52.8339 17.1578 53.2247C16.4132 53.6156 15.701 54.0065 15.0536 54.3974C14.3737 54.7882 13.8234 55.1791 13.3378 55.6026C12.8522 55.9935 12.5285 56.4169 12.3342 56.8078C12.14 57.1987 12.14 57.5895 12.3342 57.9804C12.7551 58.013 13.4025 58.013 14.2442 58.0456C15.0859 58.0781 16.0571 58.1433 17.1254 58.2084C18.1937 58.2736 19.2944 58.3713 20.4598 58.469C21.6252 58.5667 22.6935 58.697 23.6971 58.8273C24.7007 58.9576 25.5747 59.1205 26.3193 59.2833C27.0639 59.4462 27.5495 59.6416 27.8084 59.8371C28.3264 60.2931 28.6501 60.8143 28.7473 61.368C28.8444 61.9218 28.7473 62.5081 28.4883 63.127C28.2293 63.7459 27.8732 64.3648 27.3552 64.9836C26.8373 65.6025 26.2545 66.2214 25.6071 66.8403C24.9596 67.4266 24.2474 68.0129 23.5029 68.5341C22.7583 69.0879 22.0461 69.5439 21.3339 69.9999C20.654 70.4234 20.0066 70.7817 19.3915 71.0748C18.7764 71.368 18.2908 71.5634 17.9024 71.6611C17.6758 71.7589 17.3844 71.8566 17.0283 71.9217C16.6722 71.9869 16.2513 72.052 15.8305 72.052C15.4097 72.0846 14.9564 72.052 14.5032 72.0195C14.05 71.9869 13.6292 71.8892 13.2083 71.7914C12.8198 71.6611 12.4637 71.4983 12.1724 71.3028C11.881 71.0748 11.7192 70.7817 11.622 70.4885Z" fill="#450546"/>
<path d="M29.33 59.3811C28.812 57.5895 28.6178 55.8306 28.7796 54.1368C28.9415 52.443 29.3623 50.8795 30.0745 49.4463C30.7867 48.013 31.7579 46.7753 32.9557 45.7329C34.1859 44.6906 35.5779 43.9414 37.1966 43.4528C37.844 43.2574 38.3943 43.1271 38.8799 43.0945C39.3332 43.0619 39.754 43.1271 40.0777 43.2899C40.4338 43.4528 40.7252 43.7785 40.9842 44.202C41.2432 44.6254 41.4698 45.2443 41.6964 46.0261C40.531 45.4398 39.3979 45.1792 38.2972 45.2769C37.1966 45.3746 36.193 45.7329 35.2542 46.3192C34.3477 46.9056 33.5384 47.6873 32.8262 48.6645C32.1464 49.6417 31.5961 50.684 31.2076 51.8241C30.8191 52.9642 30.6249 54.1368 30.6249 55.3746C30.5925 56.5798 30.8191 57.7198 31.24 58.7948C31.7903 59.8697 32.373 60.7491 33.0205 61.4006C33.6679 62.0521 34.3801 62.5081 35.1571 62.8013C35.934 63.0944 36.7433 63.2247 37.585 63.1921C38.4591 63.1596 39.3332 62.9967 40.272 62.7361C41.4374 62.2801 42.3762 61.7915 43.1855 61.1726C43.9625 60.5863 44.6747 59.9348 45.2574 59.2508C45.8725 58.5667 46.4228 57.8501 46.9408 57.101C47.4587 56.3518 48.0091 55.6026 48.5918 54.8534C48.7213 54.8208 48.8831 54.7883 49.045 54.7557C49.2069 54.7231 49.3364 54.7231 49.4982 54.7557C49.6277 54.7883 49.7572 54.8208 49.8867 54.9186C50.0162 55.0163 50.0809 55.1466 50.1457 55.342C49.563 56.3518 48.9479 57.3615 48.2357 58.4039C47.5559 59.4462 46.7789 60.4234 45.9048 61.3029C45.0631 62.2149 44.1243 62.9967 43.0884 63.6807C42.0848 64.3648 40.9518 64.8534 39.7864 65.1465C38.7505 65.4397 37.6498 65.57 36.5815 65.4397C35.4808 65.342 34.4449 65.0488 33.4737 64.5276C32.5025 64.039 31.6284 63.355 30.8839 62.4755C30.2364 61.6612 29.6861 60.6189 29.33 59.3811Z" fill="#450546"/>
<path d="M67.886 56.8404C66.7529 55.7329 65.5228 54.6905 64.1307 53.6808C62.7711 52.671 61.379 51.6612 59.9546 50.6515C58.5302 49.6417 57.1058 48.6645 55.7138 47.6547C54.3218 46.645 52.9945 45.6026 51.7967 44.5277C52.0557 45.7329 52.3794 47.0358 52.7679 48.4691C53.1564 49.8697 53.5448 51.2703 53.9657 52.7036C54.3541 54.1042 54.7426 55.4723 55.0663 56.7752C55.4224 58.0781 55.6491 59.2182 55.8109 60.1954C55.6167 60.5211 55.4224 60.7491 55.2282 60.8794C55.034 61.0097 54.775 61.1074 54.4836 61.2052C54.1923 61.3029 53.9333 61.3029 53.7067 61.2703C53.4801 61.2377 53.3182 60.9446 53.2211 60.456C53.0916 59.6091 52.8974 58.6645 52.6384 57.6221C52.3794 56.5798 52.1204 55.4723 51.8291 54.3322C51.5377 53.1922 51.1816 52.0195 50.8255 50.8143C50.4694 49.6091 50.1133 48.4365 49.7896 47.329C49.4335 46.1889 49.1097 45.114 48.786 44.1043C48.4623 43.0945 48.1709 42.1499 47.912 41.3681C48.0738 40.9121 48.2681 40.5864 48.4947 40.3909C48.7213 40.1955 49.045 40.1629 49.4982 40.2932C49.9514 40.4235 50.5665 40.7166 51.3758 41.2052C52.1528 41.6938 53.1887 42.3779 54.4836 43.2899C55.7785 44.202 57.3648 45.342 59.2424 46.7101C61.1201 48.0782 63.4185 49.7068 66.0731 51.6287L61.9941 37.7199C62.0912 37.2639 62.2207 36.9056 62.3826 36.7101C62.5768 36.4821 62.8358 36.3193 63.1919 36.2215C63.5156 36.1238 63.807 36.189 64.0012 36.3844C64.2278 36.5799 64.3897 36.8404 64.5516 37.1662C64.6811 37.4919 64.8106 37.8176 64.8753 38.1759C64.94 38.5342 65.0048 38.7623 65.0695 38.9577C65.2638 39.6092 65.5228 40.4235 65.8465 41.4007C66.1702 42.3779 66.5587 43.4528 66.9472 44.6254C67.3356 45.7655 67.7241 46.9707 68.145 48.1759C68.5658 49.3811 68.8895 50.5537 69.2133 51.6287C69.537 52.7036 69.7636 53.6808 69.9578 54.5602C70.1521 55.4071 70.1844 56.0586 70.1197 56.5146L67.886 56.8404Z" fill="#450546"/>
<path d="M66.2026 35.0815C66.2673 35.0489 66.3968 35.0163 66.6234 34.9512C66.8177 34.886 67.0443 34.8535 67.2709 34.8209C67.4975 34.7883 67.7241 34.8209 67.9183 34.8535C68.1126 34.886 68.2744 35.0163 68.4039 35.1792C68.9219 34.8209 69.6665 34.4626 70.67 34.0717C71.6736 33.6808 72.7743 33.3877 74.0368 33.1271C75.267 32.8665 76.5619 32.7362 77.8892 32.7036C79.2164 32.6711 80.479 32.8014 81.6444 33.0945C82.8422 33.3877 83.8781 33.9089 84.7846 34.6255C85.691 35.3421 86.3385 36.3518 86.6946 37.6548C86.9535 38.5994 87.0183 39.5766 86.8888 40.5864C86.7269 41.5961 86.4356 42.6059 86.0147 43.6157C85.5615 44.6254 85.0112 45.6026 84.299 46.5798C83.5868 47.557 82.8422 48.4691 82.0329 49.3485C81.2236 50.228 80.3495 51.0423 79.4431 51.7589C78.5366 52.5081 77.6626 53.127 76.7885 53.6482C75.9144 54.1694 75.1051 54.5602 74.3282 54.8534C73.5512 55.114 72.9038 55.2443 72.3534 55.2117L66.2026 35.0815ZM84.7198 38.4691C84.3313 37.5245 83.7486 36.7753 83.0041 36.2215C82.2595 35.6678 81.3854 35.2769 80.4142 35.0163C79.4431 34.7883 78.4395 34.658 77.3712 34.6906C76.3029 34.7232 75.267 34.8209 74.2958 35.0489C73.2922 35.2444 72.3858 35.5375 71.5441 35.8958C70.7024 36.2541 70.0226 36.645 69.5046 37.0359L74.3282 52.7361C74.9756 52.5407 75.7202 52.1824 76.5619 51.6287C77.4036 51.0749 78.2453 50.4234 79.087 49.6743C79.9286 48.8925 80.7703 48.0456 81.5473 47.101C82.3242 46.1564 83.0041 45.1792 83.5544 44.202C84.1047 43.2248 84.4932 42.2476 84.7198 41.2378C84.9788 40.2606 84.9788 39.316 84.7198 38.4691Z" fill="#450546"/>
</svg>
